<svg width="512" height="512" fill="none" xmlns="http://www.w3.org/2000/svg">
  <path d="M24 191.8V121h137.8v35.4l10.12-2.53v49.31l-10.11 5.06V390.3H24V277.77l49.3-22.75v87.23h35.4v-106.2l-35.4 13.9v-46.77l40.47-21.5v-12.64l-43 1.27v21.5H24zM488 191.8V121H350.2v35.4l-10.12-2.53v49.31l10.11 5.06V390.3H488V277.77l-49.3-22.75v87.23h-35.4v-106.2l35.4 13.9v-46.77l-40.47-21.5v-12.64l43 1.27v21.5H488zM274.33 196.86l-17.7 15.17V390.3h25.29V257.55l45.51-35.4V121h-53.1v75.86zM238.93 196.86l17.7 15.17V390.3h-25.28V257.55l-45.52-35.4V121h53.1v75.86z" fill="#000"/>
</svg>
