<svg width="512" height="512" xmlns="http://www.w3.org/2000/svg">
  <path d="M340.44 348.4v77.67h-81.13V348.4h81.13zM92.48 320.94v1.95l-16.95 16.6v-18.55h16.95zm161.02 0v17.92l-17.32-17.58v-.34h17.32zm-37.72 0v.97l-17.3 16.95v-17.93h17.3zm79.41 0v17.45h-15.76v-17.45h15.76zm-103.3 0v17.24h-18v-17.25h18zm122.66 0v.21l-17.04 17.02v-17.23h17.04zm-37.44 0v17.15l-17.04-15.83v-1.33h17.04zm79.61 0v1.03l-16.11 16.04v-17.07h16.11zm-188.84 0v.93l-16.71 15.78v-16.71h16.72zm231.94 0v16.53h-16.97v-16.54h16.97zm2.32 0h16v16.53h-16v-16.53zm18.31 0L438 337.47h-17.55v-16.53zM75.53 301.9h16.95v16.72H75.53V301.9zm281.19 0v16.72h-16.11V301.9h16.11zm-42.17 0v16.72H297.5V301.9h17.04zm-61.05 0v16.72h-17.32V301.9h17.32zm-122.73 0v.44l-16.08 16.28h-.75V301.9h16.83zm37.11 0v16.72h-16.71V301.9h16.72zm250.26 0v.77l-15.1 15.95h-.9V301.9h16zm-226.25 0v16.72h-18V301.9h18zm23.89 0v16.72h-17.3V301.9h17.3zm18.08 0v16.72h-.3l-15.46-15.69v-1.03h15.76zm43.25 0v16.72h-17.04V301.9h17.04zm122.71 0v16.72h-16.97V301.9h16.97zM75.53 282.87h16.95v16.72H75.53v-16.72zm92.35 0v16.71h-16.71v-16.7h16.72zm188.84 0v16.72h-16.11v-16.72h16.11zm-42.17 0v16.71H297.5v-16.7h17.04zm-61.04 0v16.71h-17.33v-16.7h17.33zm-34.02 0l14.37 14.34v2.38H218.1v-16.72h1.4zm-70.64 0v1.15l-15.36 15.56h-.4v-16.7h15.76zm-18.08 0v16.72h-16.83v-16.72h16.83zm-19.15 0v16.72h-.7l-16.12-15.7v-1.02h16.82zm165.5 0v16.72h-17.05v-16.72h17.04zm122.7 0v16.72h-16.97v-16.72h16.97zm-207.93 0v16.71h-18v-16.7h18zm23.89 0v16.72h-17.3v-16.72h17.3zm204.76-2.32h-.09v-17.42l17.55-.08-17.46 17.5zm-328.06-17.5v17.5H75.53v-17.5h16.95zm325.66.1v17.4h-16v-17.33l16-.08zm-42.73.16v17.24h-16.37v-17.24h16.37zm-18.69 0v17.24h-16.11v-17.24h16.11zm-42.17-1.4v18.64H297.5V279l17.04-17.08zm-78.37.1l17.33 18.03v.51h-17.33V262zm-68.3 1.04v17.5h-16.71v-17.5h16.72zm-19.03 0v17.5H133.1v-1.73l15.2-15.77h.56zm-52.91 0l15.68 16.2v1.3H94.8v-17.5h1.14zm77.96-1.07l18 17.38-.01 1.2h-18v-18.58zm24.58-.07l17.3 17.26v1.38h-17.3v-18.64zm78.63.32v18.32h-17.04v-1.33l17.04-16.99zm61.18 1.08v17.24h-17.32l17.12-17.24h.2zm61.53-.08v17.32h-16.97v-17.24l16.97-.08zm-148.6-89.19l-84 80.13v-80.13h84zm89.22 1.16v77.67h-81.13V175.2h81.13zm-181.69-2.55v80.22H74l84.75-80.22zm91.61-86.72v80.22h-84.75l84.75-80.22zm90.08 2.55v77.67h-81.13V88.48h81.13z" fill="#000" fill-rule="evenodd"/>
</svg>
