<svg width="512" height="512" xmlns="http://www.w3.org/2000/svg">
  <path d="M169.2 209.78a640.58 640.58 0 01-12.46 32.89h15.46a7.06 7.06 0 017.06 6.83v.23a7.06 7.06 0 01-6.83 7.05h-21.98l-8.42 21.52h42.77c8.74-21.89 17.52-35.07 26.34-39.55 13.22-6.72 33.73 2.05 31.99 22.74-1.74 20.69-18.28 25.54-22.82 27.88-3.03 1.57-11.78 2.74-26.25 3.53l-16.4 44.02a7.06 7.06 0 01-9.03 3.83 7.2 7.2 0 01-4.06-9.12l14.69-39.51h-47.79a7 7 0 01-6.45-9.71l10.75-25.63h-22.29c-8.22 27.55-17.23 45.19-27.02 52.9-14.7 11.6-40.16 4.44-46.8-.44-6.63-4.87-15.66-14.7-15.66-30.1 0-15.42 10.48-25.57 20.94-31.02 10.12-5.28 34.67-5.45 55.3-5.45h3.53c6.48-18.52 15.08-30.72 25.8-36.61 16.1-8.84 43.8-8.6 39.63 3.72zm317.2-36.8c2.57 3.15 1.93 7.25-1.12 9.9-2.03 1.78-27.96 23.95-77.79 66.53 17.07 4.96 28.68 12.55 34.85 22.76 9.26 15.33 10.25 34.61-5.63 46.75-15.9 12.14-36.1 2.56-43.46-4.9-6.84-6.92-13.5-18.26-24.2-38.06l-16.12 39.67a6.82 6.82 0 01-12.73-4.92l.09-.22 20.48-50.39c-8-16.25-11.79-26.96-17.34-35.13-6.73-9.92-11.23-7.87-16.29-7.19-5.06.68-6.85-3.85-6.85-7.75s7.25-7.83 14.9-6.54c7.67 1.28 11.65 4.12 17.25 11.37 5.56 7.2 5.75 8.97 15.27 28.16l12.4-30.48a6.82 6.82 0 0112.72 4.92l-.08.21-16.88 41.52c12.96 25.54 22.33 43.49 33.6 49.54 12.14 6.53 26.15 1.02 26.15-16.44s-21.3-30.74-38.86-30.74c-11.7 0-15.01-4.05-9.92-12.14 57.11-49.2 86.74-74.68 88.9-76.44 3.21-2.62 8.03-3.22 10.66 0zM48.92 261.15c-3.31 2.99-7.02 4.41-9.95 12.12-2.94 7.7.09 16.33 5.57 22.67 5.5 6.34 25.98 9.28 34.69 1.56 5.8-5.14 12.16-18.8 19.06-40.95-28.27-1.13-44.73.4-49.37 4.6zm220.67-26.76a7.06 7.06 0 014.84 8.53l-.06.23-14.48 34.99 18.77-.06c7.73-27.25 18.83-39.43 33.29-36.54 14.46 2.9 18.59 15.1 12.39 36.6h9.37a7.06 7.06 0 017.06 6.82v.23a7.06 7.06 0 01-6.83 7.05h-20.39a7 7 0 01-6.43-9.77l5.13-11.9c1.32-3.1 4.46-13.85-2.47-15.15-6.92-1.3-11.44 9.23-13.8 15.14-1.04 2.6-3.2 8.3-6.49 17.1a7 7 0 01-6.6 4.55l-33.02-.23a7 7 0 01-6.44-9.61l17.4-43.2a7.06 7.06 0 018.76-4.78zm-54.73 18.42c-4.45 3.88-9.45 12.65-15.01 26.31 11.3-.54 19.23-2.95 23.78-7.23 6.83-6.42 6.55-12.08 5.95-15.96-.6-3.87-8.06-8.94-14.72-3.12zm-80.37-33.06c-6.7 4.75-11.9 12.38-15.6 22.9h22.53L153.07 214c-5.69-.9-11.88 1.02-18.58 5.76zm141.92-7.56a8.23 8.23 0 110 16.47 8.23 8.23 0 010-16.47z" fill="#000" fill-rule="nonzero"/>
</svg>
