<svg width="512" height="512" xmlns="http://www.w3.org/2000/svg">
  <path d="M488 202.5v107H24v-107h464zm-9.71 10.88H35.58v85.24h442.7v-85.24zm-262.67 19.17a23.42 23.42 0 11-18.5 37.74l9.1-7.4c2.06 2.53 5.89 4.3 9.4 4.3a11.22 11.22 0 10-6.84-20.1l-8.96-8.37a23.3 23.3 0 0115.8-6.17zm-39.85 1.75l16.5 43.88h-12.74l-8.8-28.46-8.45 28.46h-13.07l16.5-43.88h10.06zm-57.07 0v33.07h23.24v10.81h-34.81V234.3h11.57zm-35.96-.12c3.26 0 5.67.81 8.03 3.14 1.4 1.36 2.9 3.04 3.34 4.88 2.34 6.34-1.25 11.1-3.66 13.4a9.54 9.54 0 013.83 3.02c1.33 1.84 1.99 4.16 1.99 6.95 0 2.28-.47 4.33-1.42 6.14a11.13 11.13 0 01-3.87 4.31c-1 .66-2.54 1.14-4.59 1.44-2.72.4-4.52.6-5.41.6H59.25v-43.88zm270.43-.74v43.88h-11.83v-43.88h11.83zm73.9 0v14.44l12.18-14.44h14.87l-17.62 20.6 17.62 23.28h-15.64l-11.4-14.56v14.56h-11.84v-43.88h11.84zm-51.16 0v22.97l15.38-22.97h12.12v43.88H391.3v-23.4l-15.38 23.4h-12.12v-43.88h12.12zm-117.78-.06v14.44l12.17-14.44h14.87l-17.62 20.6 17.62 23.28h-15.64l-11.4-14.56v14.56h-11.84v-43.88h11.84zm58 0c8.92 0 16.14 6.76 16.14 15.1s-7.22 15.1-16.14 15.1h-8.15v13.68h-11.41v-43.88zM78.44 259.74H71v8.89h7.47c2.08 0 3.55-.42 4.4-1.24a4.43 4.43 0 001.28-3.34c0-1.3-.42-2.34-1.27-3.13-.84-.79-2.32-1.18-4.44-1.18zm237.27-15.76h-7.4v8.99h7.4a4.5 4.5 0 100-8.99zm-238.07-.91H71v8.32h6.56c1.89 0 3.2-.37 3.94-1.1.73-.72 1.1-1.78 1.1-3.15 0-1.28-.37-2.28-1.1-3-.74-.72-2.03-1.07-3.86-1.07z" fill="#000" fill-rule="nonzero"/>
</svg>
