<svg width="512" height="512" xmlns="http://www.w3.org/2000/svg">
  <path d="M256.67 315.43c24.47 0 49 9.6 63.72 27.34.18.21-8.36 8.2-25.62 23.96-10.82-10.37-21.65-16.98-35.94-16.98-30.86 0-52.36 23.26-52.36 53.02 0 26 19.27 51.84 49.4 51.84 19.1 0 40.15-7.97 41.45-27.72h-46.64v-29.1h89.7c0 66.28-33.88 90.21-83.7 90.21-56.2 0-85.24-41.96-85.24-85.23 0-49.66 36.73-87.34 85.23-87.34zm200.1-65.97v11.96H55.23v-11.96h401.52zM252.46 24c36.5 0 55.97 15.68 55.97 43.2 0 17.06-7.41 28.38-20.7 35.72 16.7 4.93 30.57 19.24 30.57 40.65 0 27.45-22.87 48.72-56.77 48.72h-68.32V24zm2.68 97.43h-23.89v37.46h25.56c12.48 0 22.28-5.88 22.28-18.66 0-12.7-9.8-18.8-23.95-18.8zm-5.81-64.03h-18.08V90.2h19.24c10.45 0 19.31-5.52 19.31-16.99 0-11.4-8.78-15.82-20.47-15.82z" fill="#000" fill-rule="nonzero"/>
</svg>
