<svg width="512" height="512" xmlns="http://www.w3.org/2000/svg">
  <path d="M301.94 446.87c8.37 16.58 18.56 30.3 30.57 41.18l1.21 1.08h-31.44l-.67-.79c-11.85-14.02-20.33-26.1-25.44-36.23 3.5-.41 7.2-1 11.1-1.79 3.67-.73 8.56-1.88 14.67-3.45zm84.02-267.07c14.53 5.5 30.27 7.13 47.22 4.89 1.82 8.37.71 15.17-3.32 20.4-6.05 7.85-11.95 8.26-5.74 21.64 4.13 8.91 13 12.64 26.58 11.18-9.02 10.14-16.96 15.21-23.82 15.21-6.86 0-16.62-3.85-29.28-11.55-6.9 6.55-12.75 10.4-17.55 11.55-4.8 1.15-10.41.05-16.84-3.31 13.25-20.23 9.72-38.96-10.6-56.19-30.47-25.84-84.14-51.22-148.77-25.13-43.09 17.4-71.29 53.08-84.6 107.07-5.57-5.27-10.43-6.86-14.59-4.8-4.15 2.08-5.58 6.4-4.3 13-4.93-2.5-9.32-3.08-13.17-1.7-3.86 1.36-7.1 4.2-9.74 8.5l.27.43c2.59 4.07 5.74 6.77 9.47 8.1 3.85 1.36 8.24.79 13.18-1.72-1.29 6.6.14 10.93 4.3 13 4.15 2.07 9 .47 14.59-4.8 13.3 53.99 41.5 89.68 84.59 107.07 6 2.42 11.9 4.4 17.69 5.97 11.52-34.8 17.29-78.66 17.29-131.55 0-60.02-3.16-98.3-9.44-123.02 8.8-1.92 17.64-2.94 26.55-3.05 8.9-.1 17.76.83 26.61 2.81-6.33 24.7-9.5 63.04-9.5 123.26 0 52.27 5.63 95.71 16.88 130.32-6.65.8-12.52 1.16-17.6 1.08-3.57-.06-6.72-.2-9.45-.42a919.75 919.75 0 01-6.66-20.73l-.28-.9c-3.11 10.08-6 19-8.69 26.74 45.07 3.68 82.03-15.84 105.37-35.64 20.32-17.23 23.85-35.96 10.6-56.18 6.43-3.36 12.04-4.47 16.84-3.32 4.8 1.15 10.65 5 17.55 11.56 12.66-7.7 22.42-11.56 29.28-11.56 6.86 0 14.8 5.07 23.82 15.21-13.58-1.46-22.45 2.27-26.58 11.19-6.21 13.37-.3 13.79 5.74 21.64 4.03 5.23 5.14 12.03 3.32 20.4-16.95-2.25-32.7-.62-47.22 4.88-21.1 8-68.5 52.95-147.75 45.43a119.6 119.6 0 01-2.36 5.03c-5.1 10.2-13.63 22.38-25.6 36.55l-.67.79h-31.45c13.6-11.97 24.92-27.53 33.94-46.68-47.6-11.36-86.96-41.15-118.1-89.36-7.89 3.82-14.82 2.24-20.8-4.76s-6.78-14.6-2.4-22.82c-6-5.77-11.09-10.82-15.26-15.14-4.07-4.23-9.41-10.62-16.02-19.17l-.49-.63c6.84-8.88 12.34-15.48 16.51-19.8a588.4 588.4 0 0115.25-15.15c-4.37-8.21-3.57-15.82 2.41-22.82s12.91-8.58 20.8-4.75c35.06-54.3 80.56-85.23 136.5-92.79 83.9-11.34 133.7 36.29 155.49 44.54zm-2.1-123.17l16.96 9.76v26.1l-.47-.14c-15.29-4.53-22.93-1.38-22.93 9.46 0 10.94 7.8 12.87 23.4 5.78 8.48 18.2 14.85 31.27 19.1 39.2 4.26 7.93.91 17.88-10.04 29.83-27.17-43.66-53.55-63.5-79.13-59.52-14.47 2.25-26.24 5.84-35.29 17.41-16.28-2.77-29.4-4.15-39.35-4.15-10.06 0-23.34 1.33-39.84 4-9.03-11.45-20.76-15.02-35.17-17.26-25.58-3.98-51.95 15.86-79.12 59.52-10.96-11.95-14.3-21.9-10.05-29.83s10.62-21 19.1-39.2c15.6 7.09 23.4 5.16 23.4-5.78 0-10.84-7.64-13.99-22.93-9.46l-.46.14v-26.1L128 56.63c18.64 12.35 34.45 20.24 47.43 23.66 12.83 3.38 33.63 6.06 62.4 8.06l.99.07 2.75 8.34c-3.91 3.24-3.91 6.85 0 10.83a193.6 193.6 0 0013.6 12.4l.76.64.76-.64a193.6 193.6 0 0013.6-12.4c3.84-3.91 3.9-7.46.2-10.65l-.2-.18 2.75-8.34 1-.07c28.75-2 49.55-4.68 62.38-8.06 12.78-3.37 28.3-11.07 46.56-23.09l.87-.57zM255.92 24l.29.61c4.38 9.3 7.21 16.01 8.49 20.16a34.36 34.36 0 011.23 13.6c6.53-2.76 12.12-2.76 16.77 0 4.64 2.78 7.87 6.92 9.68 12.44-11.85.27-19.73 2.8-23.63 7.57-3.8 4.64-7.95 11.45-12.46 20.41l-.37.75c-4.65-9.33-8.93-16.39-12.83-21.16-3.9-4.77-11.78-7.3-23.63-7.57 1.8-5.52 5.03-9.66 9.68-12.43 4.64-2.77 10.23-2.77 16.76 0a34.36 34.36 0 011.24-13.61c1.3-4.24 4.23-11.16 8.78-20.77z" fill="#000" fill-rule="evenodd"/>
</svg>
