<svg width="512" height="512" fill="none" xmlns="http://www.w3.org/2000/svg">
  <path d="M117.07 382.33c-9.67-2.5-88.2-27.22-92.88-119.4-4.67-92.16 76.42-135.95 115.56-135.95 39.13 0 52.42 14 64.21 14 11.8 0 13.34-8.56 13.9-8.5h6.27v70.35h-4.34s-4-21.17-14.66-39.58c-10.64-18.42-25.84-28.66-61.8-30.77-35.98-2.1-80.7 25.4-79.75 112.75.94 87.35 19.11 106.42 25.78 113.79 6.66 7.37 14.84 14.77 32.3 18.1 17.47 3.34 40.75 1.71 40.75 1.71l105.07-245.37h-26.31v-5.9h89.39v5.9H304.6L198.74 379.13H367.2s-17.24-5.01-35.25-19.54c-18.01-14.54-37.29-40.27-44.2-64.45-6.9-24.19-9.33-69.42 12.46-105.55 21.79-36.12 56.44-58.3 93.6-61.84 37.16-3.53 54.9 12.7 67.81 12.82 12.9.1 15.68-7.09 15.68-7.09h6.09v69.47h-4.25s-6.77-47.5-36.77-61.81c-30-14.3-62.36-9.13-79.85 1.7-17.49 10.81-26.32 24.27-34.46 57.22-8.13 32.95-7.33 88.58 2.16 124.15 9.49 35.57 32.76 50.4 51.01 52.77 18.26 2.38 40.74 5.77 59.98-5.4 19.25-11.19 19.7-15.42 29.73-31.8 9.24-15.1 12.48-27.05 12.34-36.18-.13-9.14-.42-14.81-8.22-22.75-7.8-7.93-15.66 4.54-23.1 4.33-7.44-.22-8.86-6.53-8.86-10.35 0-3.82 5.86-17.2 23.46-9.14 17.6 8.06 21.44 35.22 21.44 37.9v81.43l-344.93-.36s-16.34.17-26-2.33z" fill="#000"/>
</svg>
