<svg width="512" height="512" xmlns="http://www.w3.org/2000/svg">
  <path d="M256 458.2c-.3 4.95-.5 7.82-.65 8.61-.14.8-2.76 1.48-7.88 2.05 5.11.44 7.74 1 7.88 1.7.14.68.35 3.53.63 8.54l.02.43.02-.43c.28-5 .49-7.86.63-8.53.14-.7 2.77-1.27 7.88-1.7-5.12-.58-7.74-1.27-7.88-2.06-.14-.79-.36-3.66-.65-8.6zm84.8-161.27l.18.57c4.03 13.03 10.27 23.1 18.84 26.33-3.89 4.59-8.62 8.76-11.67 14.55 1.47 4.66 3.4 8.02 5.01 10.9-4.42 5.7-8.34 11.54-11.03 18.23 3.25 9.2 6.38 17.95 9.48 26.05.14 1.36.03 5.23-.18 4.93-.18-.28-1.94 1.47-1.47 3.25 2.72 4.05 4 3.5 6.29 5.52-11.67 9.42-12.28 29.7-15.44 52.45l-.1-.68c-3.07-22.47-3.78-42.45-15.34-51.77 2.29-2.03 3.57-1.47 6.29-5.52.47-1.78-1.29-3.53-1.47-3.25-.2.3-.32-3.57-.19-4.93 3.1-8.1 6.23-16.85 9.48-26.05-2.68-6.7-6.6-12.53-11.02-18.23 1.61-2.88 3.54-6.24 5-10.9-3.04-5.79-7.77-9.96-11.66-14.55 8.57-3.22 14.8-13.3 18.84-26.33l.17-.57zm-169.6 0l.16.57c4.04 13.03 10.27 23.1 18.84 26.33-3.89 4.59-8.62 8.76-11.67 14.55 1.47 4.66 3.4 8.02 5.01 10.9-4.42 5.7-8.34 11.54-11.02 18.23 3.25 9.2 6.37 17.95 9.48 26.05.13 1.36.02 5.23-.19 4.93-.18-.28-1.94 1.47-1.47 3.25 2.72 4.05 4 3.5 6.29 5.52-11.56 9.32-12.27 29.3-15.35 51.77l-.09.68c-3.16-22.75-3.77-43.03-15.44-52.45 2.29-2.03 3.57-1.47 6.29-5.52.47-1.78-1.29-3.53-1.47-3.25-.2.3-.32-3.57-.18-4.93 3.1-8.1 6.23-16.85 9.48-26.05-2.69-6.7-6.61-12.53-11.03-18.23 1.61-2.88 3.54-6.24 5-10.9-3.04-5.79-7.77-9.96-11.66-14.55 8.57-3.22 14.8-13.3 18.84-26.33l.17-.57zm123.85 114.08l10.69 13.62v21.38l-10.69-13.66v-21.34zm-78.1 0v21.34l-10.69 13.66v-21.38l10.69-13.62zm123.86-17.53c-.4 5.23-1.1 7.6-2.14 7.14.28 1.31.37 2.68.29 4.1-.04.64-.43 1.02-1.17 1.15 2.3 2.35 1.88 6.85 2.91 10.67l.1.36.11-.36c1.04-3.82.62-8.32 2.92-10.67-.74-.13-1.13-.51-1.17-1.14-.09-1.43 0-2.8.29-4.11-1.04.47-1.75-1.9-2.14-7.14zm-169.62 0c-.39 5.23-1.1 7.6-2.14 7.14.28 1.31.38 2.68.29 4.1-.04.64-.43 1.02-1.17 1.15 2.3 2.35 1.88 6.85 2.92 10.67l.1.36.1-.36c1.04-3.82.63-8.32 2.92-10.67-.74-.13-1.13-.51-1.17-1.14-.08-1.43.01-2.8.29-4.11-1.04.47-1.75-1.9-2.14-7.14zm123.86-71.97l10.69 13.62v76.65l-10.69-13.47v-76.8zm-78.1 0v76.8l-10.69 13.47v-76.65l10.69-13.62zm163.61-51.01v76.8l-10.69 13.47v-76.65l10.69-13.62zm-249.12 0l10.69 13.62v76.65l-10.69-13.47v-76.8zm39.75 72.1a83.34 83.34 0 01-.84 4.74c-.22.98-1.69 1.57-4.41 1.78 2.72.3 4.19.9 4.4 1.76.22.81.48 2.19.8 4.12l.05.37.06-.37c.31-1.93.57-3.31.78-4.12.23-.87 1.7-1.45 4.41-1.76-2.72-.2-4.19-.8-4.4-1.78-.21-.92-.47-2.36-.79-4.34l-.06-.4zm169.62 0l-.06.4a78.22 78.22 0 01-.78 4.34c-.22.98-1.7 1.57-4.41 1.78 2.72.3 4.18.9 4.4 1.76.22.81.48 2.19.79 4.12l.06.37.06-.37c.31-1.93.57-3.31.78-4.12.22-.87 1.7-1.45 4.41-1.76-2.72-.2-4.19-.8-4.4-1.78-.23-.98-.5-2.56-.85-4.74zm-169.62-28.53c-.7 4.93-1.17 7.9-1.39 8.87-.22.98-2.9 1.7-8.07 2.18 5.16.35 7.85.96 8.07 1.83.22.84.66 3.38 1.33 7.63l.06.42.07-.42c.66-4.25 1.1-6.8 1.32-7.63.22-.87 2.91-1.48 8.07-1.83-5.16-.47-7.85-1.2-8.07-2.18-.22-.98-.68-3.94-1.39-8.87zm169.62 0c-.7 4.93-1.17 7.9-1.39 8.87-.22.98-2.9 1.7-8.07 2.18 5.16.35 7.85.96 8.07 1.83.22.84.66 3.38 1.32 7.63l.07.42.06-.42c.67-4.25 1.11-6.8 1.33-7.63.22-.87 2.91-1.48 8.07-1.83-5.16-.47-7.85-1.2-8.07-2.18-.22-.98-.68-3.94-1.4-8.87zm-161.92-85.83c-2.3 0-2.46 2.71-1.85 6.15.62 3.44 3.58 7.62 2.47 6.93-1.11-.68-16.36-6.57-26.77 3.32-10.42 9.9-8.24 23.66-6.86 23.66 1.37 0 1.98-11.94 17.07-10.2 15.08 1.75 23.88 11.69 29.87 15.18 5.99 3.49 7.53 4.26 7.73 4.39.21.14-1.24 1.95-10.71-3.9s-14.7-5.85-19.4-2.77c-4.7 3.08-3.5 11.55-2.13 12.26 1.38.72 1.19-5.3 7.3-5.3 6.13 0 10.07 4.77 25.47 7.73 15.4 2.96 28.73-.35 30.37-.95.98-.35-2.87-.25-9.05-1.74-4.15-1-9.72-3.17-12.9-5.05-7.93-4.66-26.75-20.22-37.94-23.08-11.19-2.86-15.85.36-16.73 0-.88-.36 5.96-3.38 15.61-1.1 9.66 2.28 18.77 8.25 22.38 10.5 3.6 2.25 11.08 7.7 17.78 11.64 8.15 4.79 19.4 7.93 27.01 5.4 7.62-2.53 10.6-6.23 11.22-11.23.61-5-1.71-7.04-1.71-7.98 0-1.58 3.8 3.7 3.54 8.59-.26 4.88-3.84 10.77-11.13 13.71-7.3 2.94-17.42 3.97-23.2 7.2-5.77 3.21-6.17 9.46-5.61 12.22.55 2.76 4.98 5.65 5.76 4.98.77-.68-2.52-5.35 2.2-8.75 4.71-3.4 7.45-3.89 12.07-4.82 4.63-.93 11.98-6.11 10.2-4.18-1.79 1.93-6.34 5.84-6.9 8.81-.55 2.98 1.01 6.36 2.78 7.69 1.77 1.32 3.88 2.5 6.18 2.02 2.3-.49 5.46-2.87 5.18-5.62-.27-2.75-2.34-5.88-6-4.76-2.42.74-3.5 3.25-3.24 7.5-2.93-1.81-3.76-4.22-2.48-7.22 1.91-4.5 8-9.04 11.37-14.73a57.37 57.37 0 005.3-11.68c-1.5-10.44-2.48-16.38-2.96-17.83-.72-2.18-11.07-8.09-17.62-4.84-6.55 3.25-4 10.11-3.29 10.65.7.53 4.83-.33 6.47 3.23 1.64 3.56-1.33 5.24-.46 5.57.87.33 5.67.3 5.67-5.97s-7.83-6.34-7.38-6.81c.46-.47 7.45-1.05 9.44 4.87 1.99 5.92-3.88 12.83-11.08 9.35-7.2-3.49-10.3-9.18-15.6-11.85-5.29-2.66-8.53.48-8.03 1.43.5.94 12.07 9.83 11.41 9.83-.65 0-25.6-18.12-30.5-23.39-4.89-5.26-6.52-10.83-3.78-14.52 1.45-1.97 4.93-2.22 6.7-.94 1.56 1.13 1.76 3.74 1.37 3.74-.35 0-1.65-1.68-3.01-1.81-1.95-.19-4.2 2-2.46 5.45 1.74 3.44 6.91.8 7.55-1.53.64-2.33.67-3.57-.52-5.34-1.2-1.77-2.5-2.86-5.01-2.96-2.51-.11-6.52 1.37-7.39 4.55-.87 3.19.87 8.34.57 8.46-.3.12-3.11-4.41-2.17-7.85.95-3.43.13-6.31-2.17-6.31zm154.22 0c-2.3 0-3.12 2.88-2.17 6.31.94 3.44-1.86 7.97-2.17 7.85-.3-.12 1.44-5.27.57-8.46-.87-3.18-4.88-4.66-7.39-4.55-2.5.1-3.82 1.19-5 2.96-1.2 1.77-1.17 3.01-.53 5.34.64 2.34 5.81 4.97 7.55 1.53 1.74-3.45-.51-5.64-2.46-5.45-1.36.13-2.66 1.81-3 1.81-.4 0-.2-2.61 1.36-3.74 1.77-1.28 5.25-1.03 6.7.94 2.74 3.69 1.11 9.26-3.79 14.52-4.89 5.27-29.84 23.39-30.5 23.39-.65 0 10.93-8.89 11.42-9.83.5-.95-2.74-4.1-8.04-1.43-5.29 2.67-8.4 8.36-15.6 11.85-7.19 3.48-13.06-3.43-11.07-9.35 2-5.92 8.98-5.34 9.44-4.87.45.47-7.38.54-7.38 6.81s4.8 6.3 5.67 5.97c.87-.33-2.1-2.01-.46-5.57 1.64-3.56 5.76-2.7 6.47-3.23.7-.54 3.26-7.4-3.29-10.65s-16.9 2.66-17.62 4.84c-.48 1.45-1.47 7.4-2.95 17.83 1.28 4 3.05 7.89 5.3 11.68 3.36 5.7 9.45 10.24 11.36 14.73 1.28 3 .45 5.4-2.48 7.23.27-4.26-.82-6.77-3.25-7.51-3.65-1.12-5.72 2.01-6 4.76-.27 2.75 2.9 5.13 5.2 5.62 2.29.49 4.4-.7 6.17-2.02 1.77-1.33 3.33-4.71 2.77-7.69-.55-2.97-5.1-6.88-6.89-8.81-1.78-1.93 5.57 3.25 10.2 4.18 4.62.93 7.36 1.42 12.07 4.82 4.72 3.4 1.43 8.07 2.2 8.75.78.67 5.2-2.22 5.76-4.98.56-2.76.16-9.01-5.62-12.23-5.77-3.22-15.9-4.25-23.19-7.19-7.29-2.94-10.87-8.83-11.13-13.71-.26-4.88 3.54-10.17 3.54-8.6 0 .95-2.32 3-1.7 8 .6 5 3.6 8.69 11.2 11.22 7.62 2.53 18.87-.61 27.02-5.4 6.7-3.94 14.18-9.39 17.78-11.64 3.6-2.25 12.72-8.22 22.38-10.5 9.65-2.28 16.49.74 15.6 1.1-.87.36-5.53-2.86-16.72 0-11.2 2.86-30 18.42-37.93 23.08A55.18 55.18 0 01289.6 283c-6.18 1.49-10.03 1.39-9.05 1.74 1.64.6 14.97 3.91 30.37.95s19.34-7.74 25.46-7.74c6.12 0 5.93 6.03 7.3 5.31 1.39-.71 2.58-9.18-2.12-12.26s-9.93-3.08-19.4 2.77c-9.47 5.85-10.92 4.04-10.71 3.9.2-.13 1.74-.9 7.73-4.4 6-3.48 14.79-13.41 29.87-15.16 15.09-1.75 15.7 10.2 17.07 10.2 1.38 0 3.56-13.77-6.86-23.67-10.41-9.89-25.66-4-26.77-3.32-1.11.69 1.85-3.49 2.47-6.93.6-3.44.45-6.15-1.85-6.15zm-175.09-57.68a57.74 57.74 0 012.03 14.44c0 4.4-.87 10.48-2.63 18.21a158.5 158.5 0 007.4 11c2.15 2.9 5.6 6.9 10.33 12.02 2.08-1.19 3.66-1.67 4.71-1.46 1.06.21 2.36 1.2 3.9 2.95a13.83 13.83 0 014.08-1.49c.92-.11 2.16-.12 3.72-.02l.4.02 4.96-6.53 2.65 2.22-4.9 5.08 1.15.72 4.94-4.97 2.9 2.43-6.22 4.9.21.36a10.51 10.51 0 011.59 5.97c-.13 2.06-1.18 4.05-3.17 5.96 5.4 3.3 10.3 5.92 14.7 7.87a101.1 101.1 0 0014.13 4.99c.67-3.71 3.03-6.44 7.06-8.2 3.94-1.71 9.53-.98 16.77 2.2l.49.22-2.45-10.4-.79-.08c-18.2-1.86-33.76-9.16-46.64-21.89-12.87-12.7-20.82-26.9-23.86-42.6l-.14-.74-17.32-3.18zm195.96 0l-17.32 3.18-.14.75c-3.04 15.68-10.99 29.88-23.86 42.6-12.88 12.72-28.43 20.02-46.64 21.88l-.8.08-2.44 10.4.49-.22c7.24-3.18 12.83-3.91 16.77-2.2 4.03 1.76 6.39 4.49 7.06 8.2a101.1 101.1 0 0014.13-5c4.4-1.94 9.3-4.56 14.7-7.86-1.99-1.91-3.04-3.9-3.17-5.96-.12-1.95.41-3.94 1.59-5.97l.21-.36-6.21-4.9 2.9-2.43 4.93 4.97 1.14-.72-4.89-5.08 2.65-2.22 4.96 6.53.4-.02c1.56-.1 2.8-.09 3.72.02.99.13 2.35.62 4.08 1.49 1.54-1.75 2.84-2.74 3.9-2.95 1.05-.21 2.63.27 4.71 1.46 4.73-5.12 8.18-9.13 10.34-12.01a158.5 158.5 0 007.4-11c-1.77-7.74-2.64-13.81-2.64-18.22 0-4.4.67-9.22 2.03-14.44zm45.83-85.2c.78-.57-8.84-1.5-12.71 12.15-1.43 5.05-.36 16.74 0 22.68.36 5.95-1.85 13.91-2.69 14.46-.84.56 2.4-9.88-6.19-13.39-8.6-3.5-14.6 4.8-11.25 10.47 3.36 5.69 9.76 5.27 9.76 1 0-4.25-8.41-1-8.41-6.03s6.87-5.22 10.25-3.47c3.38 1.74 4.75 5.97 4.7 8.88l-.02.37c-.09 2.77-.65 5.52-4.49 10.7-4 5.42-9.53 11-12.63 13.93-3.35 3.17-4.8 5.6-4.8 5.93 0 .33 1.03.46 1.23.3.2-.17 1.06-.8 2.12-2.35a16.62 16.62 0 0112.05-6.91c7.29-.78 9.18 1.82 9.82 3.45a3.81 3.81 0 01-1.1 4.4c-1.23.95-3.3.69-3.68-.72-.36-1.4 2.63-3.09 1.98-4.84-.65-1.75-3.52-.24-3.96.94-.44 1.17-.76 3.68 0 4.9.76 1.2 2.14 1.94 4.3 1.94 2.15 0 3.67-2.03 4.05-3.94.37-1.92-.58-5.39-4.24-6.8-3.66-1.4-9.44-.14-9.44-.36 0-.23 5.33-2.1 10.47-.82 5.13 1.28 10 5.87 11.3 10.42 1.3 4.55.55 8-1.13 12.4s-7.66 7.02-10.05 6.54a10.66 10.66 0 01-5.54-2.84c-1.33-1.32 2.25-.34 3.6-1.12 1.34-.78 2.39-2.2 2.39-4.94 0-2.73-2.85-4.78-4.83-4.79h-.34c-2.05.03-5.55.58-9.49 5.87-4.17 5.61-6.48 10.79-6.15 20.09.33 9.3 5.78 15.25 6.85 19.03 1.07 3.79 2.69 5.45 1.53 12.38-1.15 6.93-8.86 9.66-7.6 8.04 1.28-1.63 5.8-3.85 5.8-10.76 0-6.9-4.43-14.18-5.93-18.58-1.5-4.41-3.02-7.63-2.53-14.97.48-7.33 2.5-9.73 4.91-13.95 2.42-4.23 6.34-6.85 5.17-6.85-1.16 0-4.66.92-7.8 5.96-3.13 5.05-4.88 8.14-5.27 16.66-.37 8.36 2.56 14.67 2.93 16.4.37 1.73 4.39 10.16 4.53 12.22.14 2.06.72 6.7-1.16 9.3-1.88 2.62-4.51 4.76-7.48 4.04-2.98-.72-3.68-2.6-4.2-3.4-.54-.78 3.74 1.05 5.64.3 1.91-.74 3.92-3.75 3.92-6.53 0-2.78-.92-7.54-2.03-10.82-1.11-3.27-2.6-7.45-4.97-18.99-2.38-11.54 2.1-22.23 2.1-22.96 0-.73-1.57-.62-1.92.18-.35.8-2.76 11.8-1.94 19.14.81 7.33 4.7 20.14 5.13 22.27.44 2.13 2.12 4.7 2.32 8.76.2 4.07-1.12 6.8-1.68 6.31-.55-.48 0-1.15-.4-2.71s-1.88-2.2-3.08-2.3c-1.2-.1-3.73 1.68-4.78 3.99-1.05 2.3-1.03 6.33 1.46 9.81 2.5 3.48 9.37 5.12 17.33 2.34 7.97-2.78 13.92-12.65 12.87-22.37-1.05-9.72-8.15-21.87-9.25-26.1-1.1-4.24-1.9-10.55-.8-14.6 1.12-4.05 3.82-5.6 4.45-5.24.63.37-3.32 2.29-2.38 6.54.95 4.26 2.82 5.95 6.67 6.56 3.86.62 7.68-.76 11.17-4.37 3.49-3.6 5.27-10.84 2.5-17.86-2.8-7.02-9.31-10.15-14.44-10.54-5.13-.38-11.46 3.15-8.27.32 3.2-2.83 5.43-5.64 12.14-8.76 6.72-3.12 11.23-2.86 14.9-1.5 3.68 1.37 5.18 4.4 5.85 5.73.66 1.33.47 4.4-.18 5.37-.65.98-3 3.58-5.67 2.57-2.67-1.02-3.48-2.42-3.76-4-.28-1.58.25-3.52 1.6-4.39a4.23 4.23 0 013.99-.28c1.28.68 1.8 1.65 1.38 3.05-.21.7-.91.7-.91-.16 0-.84-.72-1.45-1.34-1.56-1.25-.22-3.04.1-3.35 2.41-.3 2.32 1.84 3.13 3.46 3.13 1.62 0 3.52-1.85 3.52-4.1 0-2.26-2.17-4.5-4.66-4.73-2.5-.23-6.72 1.67-6.46 6.9.26 5.24 4.1 7.12 7.9 7.12 3.8 0 4.48-1.11 6.03-2.87 1.56-1.75 2.85-7.04.74-10.54-2.12-3.5-4.01-4.56-7.9-5.9-3.89-1.32-5.74-.96-7.05-.96-1.32 0-5.94 1.1-1.43-1.53 4.5-2.63 7.71-6.91 9.11-8.85 1.4-1.93 2.65-4.59 1.43-7.24-1.23-2.65-5.35-2.12-6.06-.14a3.01 3.01 0 001.97 3.91c.81.18 1.91-.18 2.74-1.11.83-.94.44.9-.42 2.62-2.6 5.26-12 12.3-11 10.3s4.93-6.7 5.49-13.76c.56-7.09-3.63-20.53-2.28-26.6 1.43-6.4 5.19-8.69 5.97-9.27zm-287.62 0c.78.6 4.54 2.88 5.97 9.28 1.35 6.07-2.84 19.51-2.28 26.6.56 7.07 4.49 11.77 5.5 13.76 1 2-8.42-5.04-11.01-10.3-.86-1.73-1.25-3.56-.42-2.62.83.93 1.93 1.29 2.74 1.11a3.01 3.01 0 001.97-3.91c-.71-1.98-4.83-2.51-6.06.14-1.22 2.65.03 5.31 1.43 7.24 1.4 1.94 4.6 6.22 9.11 8.85 4.5 2.63-.11 1.53-1.43 1.53-1.3 0-3.16-.36-7.05.97-3.89 1.33-5.78 2.38-7.9 5.89-2.11 3.5-.82 8.79.74 10.54 1.55 1.76 2.24 2.87 6.03 2.87 3.8 0 7.64-1.88 7.9-7.12.26-5.23-3.96-7.13-6.46-6.9-2.5.22-4.66 2.47-4.66 4.72 0 2.26 1.9 4.1 3.52 4.1s3.77-.8 3.46-3.12c-.31-2.31-2.1-2.63-3.35-2.41-.62.1-1.34.72-1.34 1.56 0 .85-.7.86-.9.16-.42-1.4.1-2.37 1.37-3.05.93-.5 2.63-.58 3.99.28 1.35.87 1.88 2.81 1.6 4.4-.28 1.57-1.1 2.97-3.76 3.99-2.67 1.01-5.02-1.6-5.67-2.57-.65-.98-.84-4.04-.18-5.37.67-1.32 2.17-4.36 5.85-5.72 3.67-1.37 8.18-1.63 14.9 1.5 6.71 3.11 8.94 5.92 12.14 8.75 3.19 2.83-3.14-.7-8.27-.32-5.13.39-11.65 3.52-14.43 10.54-2.78 7.02-1 14.26 2.5 17.86 3.48 3.6 7.3 4.99 11.16 4.37 3.85-.6 5.72-2.3 6.67-6.56.94-4.25-3-6.17-2.38-6.54.63-.37 3.33 1.2 4.44 5.24 1.12 4.05.3 10.36-.79 14.6-1.1 4.23-8.2 16.38-9.25 26.1-1.05 9.72 4.9 19.6 12.87 22.37 7.96 2.78 14.84 1.14 17.33-2.34 2.49-3.48 2.51-7.5 1.46-9.81-1.05-2.3-3.59-4.1-4.78-4-1.2.11-2.68.75-3.09 2.3-.4 1.57.16 2.24-.4 2.72-.55.49-1.86-2.24-1.67-6.3.2-4.08 1.88-6.64 2.32-8.77.44-2.13 4.32-14.94 5.13-22.27.82-7.34-1.59-18.33-1.94-19.14-.35-.8-1.93-.91-1.93-.18s4.49 11.42 2.11 22.96c-2.37 11.54-3.86 15.72-4.97 19-1.11 3.27-2.03 8.03-2.03 10.81 0 2.78 2.01 5.79 3.92 6.54 1.9.74 6.18-1.1 5.65-.3-.53.79-1.23 2.67-4.2 3.39-2.98.72-5.61-1.42-7.5-4.03-1.87-2.61-1.3-7.25-1.15-9.31.14-2.06 4.16-10.49 4.53-12.22.37-1.73 3.3-8.04 2.93-16.4-.39-8.52-2.14-11.61-5.28-16.66-3.13-5.04-6.63-5.96-7.8-5.96-1.16 0 2.76 2.62 5.18 6.85 2.41 4.22 4.43 6.62 4.91 13.95.49 7.34-1.03 10.56-2.53 14.97-1.5 4.4-5.94 11.67-5.94 18.58 0 6.91 4.53 9.13 5.8 10.76 1.27 1.62-6.44-1.11-7.6-8.04-1.15-6.93.47-8.6 1.54-12.38 1.07-3.78 6.52-9.73 6.85-19.03.33-9.3-1.98-14.48-6.15-20.09-3.94-5.3-7.44-5.84-9.49-5.87h-.34c-1.98.01-4.83 2.06-4.83 4.8 0 2.72 1.05 4.15 2.4 4.93 1.34.78 4.92-.2 3.59 1.12a10.66 10.66 0 01-5.54 2.84c-2.39.48-8.37-2.14-10.05-6.54-1.68-4.4-2.44-7.85-1.13-12.4 1.3-4.55 6.17-9.14 11.3-10.42 5.14-1.28 10.47.6 10.47.82 0 .22-5.78-1.05-9.44.36-3.66 1.41-4.61 4.88-4.24 6.8.38 1.91 1.9 3.94 4.05 3.94 2.16 0 3.54-.74 4.3-1.95.76-1.2.44-3.72 0-4.9-.44-1.17-3.31-2.68-3.96-.93-.65 1.75 2.34 3.43 1.98 4.84-.37 1.4-2.45 1.67-3.69.73a3.81 3.81 0 01-1.1-4.4c.65-1.64 2.54-4.24 9.83-3.46 7.3.77 11 5.37 12.05 6.91 1.06 1.55 1.93 2.18 2.12 2.35.2.16 1.22.03 1.22-.3 0-.34-1.44-2.76-4.79-5.93-3.1-2.94-8.63-8.5-12.63-13.93-3.84-5.18-4.4-7.93-4.5-10.7v-.37c-.06-2.9 1.3-7.14 4.69-8.88 3.38-1.75 10.25-1.56 10.25 3.47s-8.4 1.78-8.4 6.04 6.4 4.68 9.75-1c3.36-5.69-2.66-13.99-11.25-10.48-8.6 3.51-5.35 13.95-6.2 13.4-.83-.56-3.04-8.52-2.68-14.47.36-5.94 1.43-17.63 0-22.68-3.87-13.65-13.49-12.72-12.7-12.14zm74.73 91.76c.92 13.96 6.79 27.16 17.61 39.57 10.82 12.42 24.9 19.88 42.24 22.36a96 96 0 00-5.22-13.51 33.6 33.6 0 00-8.6-11c5.26-3.15 8.4-5.96 9.4-8.45 1.53-3.74-1.97-6.44-2.32-7.59a11.2 11.2 0 01-.46-2.22 8.37 8.37 0 01-2.03 1.79c-.77.4-3.8.53-6.09 4.46-1.52 2.61-2.14 5.7-1.84 9.23-4.35.64-7.52 1.57-9.5 2.78a322.1 322.1 0 01-7.94 4.62l-.49.28-3.55-3.76 26.9-26.2-1.8-1.76-26.33 26.77-3.66-4.13.36-.62c2.06-3.48 3.73-6.46 5-8.93a16.66 16.66 0 002.04-7.7c4.24 0 7.6-.82 10.1-2.43 3.73-2.42 3.17-4.88 3.73-5.61.37-.49.94-1.1 1.72-1.84-1.24-.03-1.98-.14-2.23-.31-.36-.26-3.81-4.08-8-2.1-2.78 1.33-5.44 4.41-7.96 9.24-2.58-3.43-5.24-5.94-8-7.53-2.75-1.59-7.12-3.39-13.08-5.4zm138.16 0c-5.96 2.02-10.33 3.82-13.08 5.41-2.76 1.6-5.42 4.1-8 7.53-2.52-4.83-5.18-7.9-7.96-9.23-4.19-1.99-7.64 1.83-8 2.09-.25.17-.99.28-2.23.31a16.3 16.3 0 011.72 1.84c.56.73 0 3.2 3.73 5.61 2.5 1.61 5.86 2.42 10.1 2.43 0 2.51.67 5.08 2.03 7.7 1.28 2.47 2.95 5.45 5 8.93l.37.62-3.66 4.13-26.33-26.77-1.8 1.76 26.9 26.2-3.55 3.76-.5-.28a322.1 322.1 0 01-7.93-4.62c-1.98-1.21-5.15-2.14-9.5-2.78.3-3.54-.32-6.62-1.84-9.23-2.29-3.93-5.32-4.07-6.09-4.46a8.37 8.37 0 01-2.03-1.8 11.2 11.2 0 01-.46 2.23c-.35 1.15-3.85 3.85-2.33 7.59 1.01 2.49 4.15 5.3 9.4 8.45a33.6 33.6 0 00-8.6 11 96 96 0 00-5.21 13.51c17.34-2.48 31.42-9.94 42.24-22.36 10.82-12.41 16.7-25.6 17.61-39.57zm-177.9-7.66c-.28.39 2.68 2.95 2.93 2.95.24 0-.52-2.78-1.05-2.95-.53-.18-1.6-.4-1.89 0zm217.65 0c-.28-.4-1.36-.18-1.9 0-.52.17-1.28 2.95-1.04 2.95.25 0 3.21-2.56 2.94-2.95zm-221.76-8.06c-.27.33-.08 2.52.17 2.65.25.13 2.37-.17 2.37-.42 0-.24-2.28-2.56-2.54-2.23zm225.86 0c-.26-.33-2.54 2-2.54 2.23 0 .25 2.12.55 2.37.42.25-.13.44-2.32.17-2.65zm-100.79-59.79c2.25 5.29 4.1 8.93 5.55 10.92 1.45 2 3.34 3.89 5.67 5.67-4.64 2.72-7.66 5.25-9.09 7.6-1.38 2.28-.8 4.98 1.73 8.09l.23.27.13 2.05 2.28-1.94h.2c1.45-.09 3.08-1.13 4.86-3.13 1.86-2.09 2.74-5.43 2.63-10.04 3-.46 5.27-1.04 6.8-1.72 2.28-1.04 5.74-2.97 6-2.97.15 0 1.76 1.36 4.82 4.07l.27.24-23.31 22.71 2.09 1.5 22.69-23.16 4.31 4.7-.26.5a61.98 61.98 0 00-3.32 7.2 17.27 17.27 0 00-1.1 5.47c-4.55.16-7.87.9-9.96 2.2a7.13 7.13 0 00-3.51 5.13l-.05.3-1.88 2.08 2.3.55.15.22c1.54 2.16 3.8 2.89 6.75 2.17 3.06-.73 6.05-3.87 8.97-9.4a28.63 28.63 0 007.29 6.66c3.06 2.03 7.29 3.82 12.68 5.37-4.28-15.26-11.27-27.3-20.97-36.1-9.7-8.83-21.35-14.56-34.95-17.2zm-24.28 0c-13.6 2.65-25.24 8.38-34.95 17.2-9.7 8.82-16.69 20.85-20.97 36.1 5.39-1.54 9.62-3.33 12.68-5.36a28.63 28.63 0 007.29-6.66c2.92 5.53 5.91 8.67 8.97 9.4 2.95.72 5.2 0 6.75-2.17l.16-.22 2.29-.55-1.88-2.08-.05-.3a7.13 7.13 0 00-3.5-5.13c-2.1-1.3-5.42-2.04-9.96-2.2-.04-1.71-.41-3.54-1.11-5.48a61.98 61.98 0 00-3.32-7.18l-.26-.5 4.31-4.71 22.7 23.16 2.08-1.5-23.31-22.7.27-.25c3.06-2.71 4.67-4.07 4.83-4.07.25 0 3.71 1.93 6 2.97 1.52.68 3.78 1.26 6.8 1.72-.12 4.6.76 7.95 2.62 10.04 1.78 2 3.4 3.04 4.87 3.12l.19.01 2.28 1.94.13-2.05.23-.27c2.53-3.11 3.1-5.8 1.73-8.09-1.43-2.35-4.45-4.88-9.09-7.6a27.85 27.85 0 005.67-5.67c1.45-1.99 3.3-5.63 5.55-10.92zm12.16 319.54c.27-3.95.58-6.08.95-6.4.38-.32 1.5-.8 3.38-1.44-1.71-.61-2.84-1.1-3.38-1.46-.54-.37-.86-2.4-.97-6.12-.1 3.71-.43 5.75-.97 6.12-.54.36-1.67.85-3.38 1.46 1.87.64 3 1.12 3.38 1.45.37.31.68 2.44.95 6.4l.02.37zm0-35.74c.28-6.24.49-9.78.63-10.63.14-.86 2.76-1.7 7.88-2.53-5.12-.42-7.74-1.13-7.88-2.1-.14-.98-.36-4.53-.65-10.64-.3 6.11-.5 9.66-.65 10.64-.14.97-2.76 1.68-7.88 2.1 5.12.83 7.74 1.67 7.88 2.53.14.85.35 4.39.63 10.63l.02.44zm.02-29.9c.57-7.62 1-11.95 1.27-12.98.3-1.05 5.54-1.93 15.74-2.65-10.2-.8-15.45-1.8-15.74-2.99-.28-1.18-.72-5.5-1.31-12.93-.6 7.44-1.03 11.75-1.31 12.93-.29 1.2-5.53 2.19-15.74 3 10.2.71 15.45 1.6 15.74 2.64.28 1.03.7 5.36 1.27 12.99l.04.47zm-.01-74.9c.97-65.87 1.46-100.61 1.48-104.22v-.38c.2-3.55 5.64-7.81 8.49-7.81 1.94 0 36.38-.55 103.33-1.65-67.08-1.48-101.52-2.21-103.33-2.21-2.72 0-8.5-4.37-8.5-7.63v-.16c-.01-3.22-.51-33.27-1.5-90.15-.99 56.88-1.49 86.93-1.5 90.15v.16c0 3.26-5.78 7.63-8.5 7.63-1.8 0-36.25.73-103.33 2.2 66.95 1.1 101.4 1.66 103.33 1.66 2.85 0 8.29 4.26 8.49 7.81v.38c.02 3.65.52 39.05 1.51 106.23zm-17.27 188.85c-1.75-3.27-3.34-9.15-4.78-17.67 5.7 6.95 10.8 8.88 15.29 5.82 4.49-3.07 2.36-7.04-6.38-11.93a20.14 20.14 0 007.25-5.24c2.68-3.17 4.48-7.53 4.14-9.1-.34-1.58-2.47-5.2-4.74-8.31-1.51-2.08-4.9-5.58-10.15-10.5 5.15-2.7 8.44-5.1 9.88-7.22 2.14-3.17 5.29-8.63 5.29-9.28 0-.66-3.25-7.85-5.85-12.11a128.12 128.12 0 00-8.4-11.62 29 29 0 003.71-6.08c1.17-2.74 2.65-7.09 2.34-8.09-.3-1-2.56-5.32-5.18-8.76-1.75-2.3-5-5.75-9.75-10.35 4.86-1.29 9.32-4.56 13.38-9.81 4.06-5.25 7.5-12.05 10.3-20.38-1.48.03-2.87.03-4.18 0-2.18-.06-1.03 4.19-9.14 4.19-8.11 0-9.53-5.78-10.36-6.24l-.03-.01c-.26-.13.45.6-6.24-1.4-1.82-.55-6.1-1.25-5.6-.31.51.94 2.61 8.78-5.2 7.27-7.39-1.43-7.68-10.64-7.69-12.1v-.18c0-.54-8.27-3.05-16.47-7.37-8.2-4.31-15.44-9.35-16.16-10.09-1.28-1.3-.54 6-6.55 4.47-6-1.51-3.7-12.76-4.16-13.1-1.87-1.31-8.61-7.75-10.28-9.27-1.67-1.53-3 10.15-8.95 7.11-3.96-2.02-4.46-8.5-1.48-19.47a192.14 192.14 0 01-5.95-8.3 68.82 68.82 0 01-3.48-5.8c-2.57-1.57-4.86-4.3-6.87-8.2a22.8 22.8 0 01-2.75-11.54 329.6 329.6 0 01-5.71-17.74c-1.6-5.56-2.76-12.51-3.47-20.86-2.36-3.19-3.76-6.14-4.22-8.86-.45-2.72-.14-6 .95-9.82-7.66.07-12.07-3.6-13.24-11-1.18-7.4 3.24-12.9 13.24-16.52-4.72-4.4-6.91-8.72-6.57-12.94.35-4.23 3.08-6.49 8.2-6.77 1.84-7.46 2.48-13.78 1.91-18.97-.85-7.79-8.7-5.91-6.7-11.8 1.99-5.88 15.2.91 17.99 6.7a30.76 30.76 0 013.05 12.3c16.7-33.14 58.43-77.32 124.98-78.2L256 24v7.16c-18.95.45-35.54 4.24-49.8 11.36-13.98 7-27.24 17.64-39.75 31.95l-.71.81 27.76 24.15-1.75 1.77-9.09-8.43 8.27 9.1-1.43 1.83-24.35-27.66-.75 1.03c-4.7 6.5-8.65 13.1-11.84 19.78a110.53 110.53 0 00-7.84 22.57c3.87 3.55 5.38 7.16 4.53 10.82-.86 3.66-3.37 6.56-7.55 8.71v3.23l-.01.82v1.42c0 1 0 2.27-.02 3.83a71.52 71.52 0 016.4 6.4 79.28 79.28 0 015.72 7.27l.61.89 19.2-3.65-.02-.74c-.42-19.7 6.12-37.76 19.64-54.18 13.69-16.63 32.9-26.34 57.65-29.12 1.6-8.77 2.67-15.76 3.23-20.97.55-5.07 1.18-12.48 1.88-22.22l.02-.35.02.35c.7 9.74 1.33 17.15 1.88 22.22.56 5.21 1.64 12.2 3.23 20.97 24.74 2.78 43.96 12.5 57.65 29.12 13.52 16.42 20.06 34.48 19.64 54.18l-.02.74 19.2 3.65.61-.9a79.28 79.28 0 015.72-7.26 71.52 71.52 0 016.4-6.4l-.02-3.83V142.18v-3.23c-4.19-2.15-6.7-5.05-7.56-8.71-.85-3.66.66-7.27 4.53-10.82a110.53 110.53 0 00-7.84-22.57 127.58 127.58 0 00-11.84-19.78l-.75-1.03-24.35 27.66-1.43-1.83 8.27-9.1-9.09 8.43-1.75-1.77 27.76-24.15-.7-.81c-12.52-14.3-25.78-24.96-39.77-31.95-14.25-7.12-30.84-10.9-49.79-11.36V24l2.02.01c66.55.88 108.28 45.06 124.98 78.2.17-4.35 1.19-8.45 3.05-12.3 2.8-5.79 16-12.58 18-6.7 1.99 5.89-5.86 4.01-6.71 11.8-.57 5.19.07 11.51 1.91 18.97 5.12.28 7.85 2.54 8.2 6.77.34 4.22-1.85 8.54-6.57 12.94 10 3.61 14.42 9.12 13.24 16.53-1.17 7.4-5.58 11.06-13.24 10.99 1.09 3.83 1.4 7.1.95 9.82-.46 2.72-1.86 5.67-4.22 8.86-.7 8.35-1.86 15.3-3.47 20.86a329.6 329.6 0 01-5.7 17.74 22.8 22.8 0 01-2.76 11.54c-2 3.9-4.3 6.63-6.87 8.2a68.82 68.82 0 01-3.48 5.8 192.14 192.14 0 01-5.95 8.3c2.98 10.96 2.48 17.45-1.48 19.47-5.94 3.04-7.28-8.64-8.95-7.11-1.67 1.52-8.4 7.96-10.28 9.28-.46.33 1.85 11.58-4.16 13.1-6.01 1.51-5.27-5.78-6.55-4.48-.72.74-7.97 5.78-16.16 10.1-8.2 4.3-16.47 6.82-16.47 7.36v.17c-.01 1.47-.3 10.68-7.69 12.1-7.81 1.52-5.71-6.32-5.2-7.26.5-.94-3.78-.24-5.6.3-6.69 2.02-5.98 1.28-6.24 1.4l-.03.02c-.83.46-2.25 6.24-10.36 6.24s-6.96-4.25-9.14-4.2c-1.3.04-2.7.04-4.18 0 2.8 8.34 6.24 15.14 10.3 20.39 4.06 5.25 8.52 8.52 13.38 9.8-4.75 4.61-8 8.06-9.75 10.36-2.62 3.44-4.87 7.76-5.18 8.76-.3 1 1.17 5.35 2.34 8.09a29 29 0 003.72 6.08c-3.88 4.9-6.68 8.78-8.4 11.62-2.6 4.26-5.86 11.45-5.86 12.1 0 .66 3.15 6.12 5.3 9.3 1.43 2.11 4.72 4.52 9.87 7.2-5.25 4.93-8.64 8.43-10.15 10.5-2.27 3.12-4.4 6.74-4.74 8.31-.34 1.58 1.46 5.94 4.14 9.11a20.14 20.14 0 007.25 5.24c-8.74 4.89-10.87 8.86-6.38 11.93 4.5 3.06 9.59 1.13 15.29-5.82-1.44 8.52-3.03 14.4-4.78 17.67-4.44 8.3-10.19 14.49-17.24 18.54-7.05-4.05-12.8-10.23-17.24-18.54z" fill="#000" fill-rule="evenodd"/>
</svg>
