<svg width="512" height="512" xmlns="http://www.w3.org/2000/svg">
  <path d="M256 24c21.42 0 37.42 26.66 49 72.24 10.74 42.3 16.84 99.16 16.84 159.76 0 9.96-.16 19.81-.49 29.52 33.52-1.87 64.1-5.16 89.24-9.63l1.23-.22 1.25-.23c19.09-3.5 34.26-7.6 44.48-11.95 4.85-2.07 8.39-4.12 10.48-5.97.35-.3.64-.6.86-.84l.13-.15.12-.14-.12-.15c-.24-.28-.57-.61-.99-.98-2.1-1.85-5.63-3.9-10.48-5.97a119.78 119.78 0 00-10.84-3.95c-5.24-2.13-7.4-5.71-6.46-10.75 1.07-5.82 5-8.21 11.8-7.17 23.39 7.27 35.95 16.45 35.95 28.97 0 17.83-25.5 28.9-71.47 37.32l-1.4.25-1.53.28c-26.33 4.66-58.21 8.06-93.07 9.95-2.33 42.13-7.7 80.73-15.54 111.57C293.42 461.34 277.42 488 256 488c-19.88 0-35.1-22.97-46.43-62.7l.25.5c-.68-6.78 1.53-10.74 6.63-11.87 5.1-1.14 8.74.87 10.9 6l.01-.08c9.14 31.95 20.37 49.56 28.64 49.56 8.9 0 21.23-20.39 30.69-57.1l.29-1.12.35-1.43c7.22-28.94 12.25-65.12 14.53-104.72-12.97.48-26.26.77-39.76.83h-1.74l-4.36.02c-60.39 0-117.04-4.33-159.13-11.93C50.02 285.5 24 274.4 24 256.4c0-17.84 25.5-28.9 71.47-37.32l1.4-.26 1.53-.27c26.32-4.66 58.19-8.06 93.03-9.95 2.3-42.44 7.7-81.32 15.58-112.35C218.58 50.66 234.58 24 256 24zm-77.18 304.37v27.5h-9.94c-1.41-9.63-2.18-14.08-4.16-16.19H139.5l44 58.23h-44v46.9h27.24c.89-1.94 3.98-6.78 3.98-16.74h8.1v27H107.4v-5.96l10.73-4.3-1.24-60.04h30.96l-43.88-56.4h74.85zM256 225.48c-15.93 0-31.58.3-46.75.9-.31 9.16-.48 18.46-.5 27.87v3.81c.02 9.57.2 19.03.53 28.34 13.27.52 26.9.81 40.78.88h1.7l4.24.01c15.92 0 31.56-.3 46.72-.89a867.01 867.01 0 00.03-60.02c-12.9-.5-26.14-.8-39.6-.88l-2.92-.01-4.23-.01zm-65.38 1.78h-.04c-33.5 1.87-64.04 5.16-89.17 9.63l-1.23.22-1.25.22c-19.09 3.5-34.26 7.6-44.48 11.96-4.85 2.07-8.39 4.12-10.48 5.97-.35.3-.64.59-.86.84l-.13.14-.12.15.12.14c.15.18.34.39.57.6l.18.17.24.22c2.1 1.85 5.63 3.9 10.48 5.97 10.26 4.38 25.53 8.49 44.75 12l.98.18 1.46.26c25.1 4.45 55.6 7.73 89 9.6-.28-8.7-.45-17.5-.48-26.38v-5.26c.02-8.98.18-17.87.46-26.63zM427.98 94.08c11.6 0 8.39 15.58 5.8 19.86-1.73 2.86-5.12 5.93-10.16 9.23 6.24 1.65 9.36 9.06 9.36 22.25 0 13.18-4.2 22.52-12.58 28.01 11.74 4.46 16.2 15.08 13.38 31.88-2.8 16.63-25.3 25.35-67.55 26.17l-1.28.02v-34.8h11.27c-.87 11.39 1.76 17.88 7.87 19.48 9.17 2.4 26.37-5.23 26.37-21.89s-20.01-9.86-36.93-16.36c-16.92-6.5-20.24-12.52-20.24-34 0-21.5 15.43-31.97 34.42-31.97 12.66 0 21.2 1.3 25.62 3.93.6-1.1 1.5-3.5 2.68-7.2 1.78-5.57.37-14.61 11.97-14.61zM256 42.59c-8.9 0-21.23 20.39-30.69 57.1l-.29 1.12-.35 1.43c-7.27 29.13-12.31 65.6-14.57 105.5 12.97-.49 26.28-.77 39.8-.84h1.74l4.36-.01c15.61 0 30.98.29 45.9.85-2.26-40-7.33-76.54-14.62-105.7l-.3-1.23-.29-1.12c-9.46-36.71-21.8-57.1-30.69-57.1zm142.6 82.63h-14.08a10 10 0 00-10 9.72v22.36a10 10 0 009.72 10h14.36a10 10 0 0010-9.72v-22.36a10 10 0 00-10-10z" fill="#000" fill-rule="nonzero"/>
</svg>
