<svg width="512" height="512" xmlns="http://www.w3.org/2000/svg">
  <path d="M395.2 149.22C448.46 160.9 488 204.28 488 256c0 60.68-54.43 109.87-121.57 109.87-4.65 0-9.24-.23-13.76-.7V186.45h25.61v152.7c47.6-5.13 84.43-40.4 84.43-83.14 0-37.52-28.38-69.28-67.5-79.95v-26.83zm-257.37-2.87v26.12c-44.52 3-80.56 32.29-87.6 70.01h66.73v27.04H50.23c7.04 37.72 43.08 67 87.6 70.01v26.12C74.29 362.05 24 314.33 24 256c0-58.33 50.3-106.04 113.83-109.65zm17.39.12c44.81 3.18 82.8 28.31 100.78 63.51 15.1-29.54 44.27-52 79.76-60.33v26.84c-38.3 11.1-65.93 42.5-65.93 79.51 0 37.01 27.62 68.42 65.93 79.5v26.85c-35.49-8.34-64.67-30.8-79.76-60.33-17.99 35.2-55.97 60.33-100.78 63.51v-26.17c48.65-4.27 86.63-39.96 86.63-83.36s-37.98-79.1-86.63-83.36v-26.17zm211.2-.34c4 0 7.96.17 11.86.51v26.22a111.9 111.9 0 00-25.6.18v-26.22c4.5-.46 9.1-.7 13.75-.7z" fill="#000" fill-rule="evenodd"/>
</svg>
