<svg width="512" height="512" xmlns="http://www.w3.org/2000/svg">
  <path d="M225.23 127.43v256.94h-65.1v.2h-55.86V127.63h55.85V328.5h9.25V127.43h55.86zM79.86 201.96v182.59H24V201.96h55.86zm221.83-74.53h119.99V328.5h11.8V127.43H488v256.94H367.15V183.28h-10.93v201.1h-54.53V127.42zm-10.3 0v256.94h-55.86V127.43h55.86zm-71.4 5.23h-45.38v201.09H154.9V132.86H109.5v246.48h45.39v-.2h65.1V132.65zM74.63 207.2H29.24v172.1h45.38V207.2zm341.82-74.54H306.92v246.47h44.06V178.05h21.4v201.08h110.38V132.66h-44.05v201.1l-22.27-.01V132.66zm-130.29 0h-45.38v246.47h45.38V132.66zm-206.3-5.03v55.86H24v-55.86h55.86zm-5.23 5.23H29.24v45.39h45.38v-45.39z" fill="#000" fill-rule="nonzero"/>
</svg>
