<svg width="512" height="512" fill="none" xmlns="http://www.w3.org/2000/svg"><path fill-rule="evenodd" clip-rule="evenodd" d="M256 488c128.13 0 232-103.87 232-232S384.13 24 256 24 24 127.87 24 256s103.87 232 232 232zm-.32-10.99c121.88 0 220.69-98.8 220.69-220.69 0-121.88-98.8-220.69-220.7-220.69C133.8 35.63 35 134.43 35 256.33 34.99 378.2 133.79 477 255.68 477z" fill="#000"/><path d="M148.24 106.07h68.46v2.91s-23.87.32-4.64 31.99c19.22 31.66 119.06 181.6 129.73 197.59 10.66 16 8.4 13.73 24.72 35.38 16.31 21.65 32.8 26.01 32.8 26.01l.32 2.42h-69.96v-2.58s20.3-4.04 10.66-25.53c-9.63-21.49-47.06-72.86-91.44-141.52-44.38-68.67-59.3-91.45-71.08-106.15-11.8-14.7-28.92-17.6-28.92-17.6l-.65-2.92z" fill="#000"/><path d="M256.97 102.84c-25.69 2.42-35.7 17.77-35.7 17.77l1.61 2.1s20.03-23.1 50.08-14.05c30.05 9.05 33.93 37.64 28.92 60.58-5 22.94-22.62 49.28-60.1 57.52-37.48 8.24-62.2 17.93-78.52 28.1-16.31 10.19-45.55 33.77-44.59 73.36.97 39.58 27.15 64.46 71.09 75.93 43.95 11.47 89.34 2.42 113.42-20.84 23.1-22.3 34.54-42.98 40.7-54.6 6.18-11.64 13.9-27.15 30.87-56.88 16.96-29.72 38.29-29.89 38.29-29.89v-3.23H352.6v3.23s11.72.97 16.97 7.27c5.24 6.3.64 21.33-8.57 38.13-9.2 16.8-40.06 84.62-73.99 102.76-33.93 18.13-60.26 17.93-86.76 10.82-26.5-7.1-46.37-38.29-47.33-60.26-.97-21.98-.3-40.94 11.95-61.23 14.9-24.7 23.43-25.7 37-34.9 13.57-9.21 55.57-16.48 73.5-24.24 17.94-7.75 36.2-22.13 43.79-39.58 7.6-17.45 5-34.57-3.07-48.47-8.08-13.89-33.44-31.82-59.13-29.4z" fill="#000"/></svg>
