<svg width="512" height="512" xmlns="http://www.w3.org/2000/svg">
  <path d="M368.93 145.72l31.34 143.87 32.52-143.87h29.89L379.47 488h-28.15l33.13-145.63-46.58-196.65h31.06zM146.53 84v61.72h46.84v31.48h-46.85v130.55a40 40 0 0040 40h6.85v30.37h-10.64c-37 0-67-30-67-67V84h30.8zm-66.41 75.06v219.06h-30.8V188.45l30.8-29.39zm242.92-13.34v30.46l-80.87 171.67h125.15l-5.83 30.27H210.94v-30.27l79.8-171.67h-77.07v-30.46h109.37zM80.12 84v36.56l-30.8 30.13V84h30.8z" fill="#000" fill-rule="evenodd"/>
</svg>
