<svg width="512" height="512" xmlns="http://www.w3.org/2000/svg">
  <path d="M237.41 172.24v6.36c-4.54.58-7.01 2.43-7.43 5.56-7.09 52.88-18.09 137.03-21.4 143.88-6.72 13.9-11.2 23.03-31.15 27.53-12 2.71-32.32 3.82-60.96 3.34v-7.03c9.13-.17 13.93-2.77 14.39-7.8 7.6-48.66 8.15-83.85 16.87-108.47 6.4-18.07 17.53-30.56 29.67-41.44a70.26 70.26 0 0126.92-15.32c-41.6 0-66.33.87-74.22 2.61-7.98 1.76-24.64 8.18-34.7 16.51-10.62 8.8-18 19.65-18 28.65s5.62 10.38 15.57 10.02c15.86-.58 26.95 7.7 29 20.98 2.94 19.02-12.8 29.64-26.57 28.66C80.2 285.2 71 277 65.49 263.93c-2.4-5.69-1.9-30.27 1.48-38.56l.27-.67c4.12-10.13 8.04-19.15 24.27-33.45 4.62-4.06 12.66-9.16 21.66-12.65 10.4-4.02 24.92-5.87 28.16-5.87 34.01 0 66.04-.16 96.08-.5zm222.98-26.16c10.36.34 17.9 2.94 23.03 8.85 5.13 5.9 5.58 15.87 3.19 20-2.4 4.12-6.13 9.6-16.09 9.6s-14.99-8.04-16.42-13.9c-1.43-5.84-.76-7.4-1.22-10-.6-3.37-1.68-4.2-4.35-4.68-4.73-.85-10.02 2.83-13.45 6.43-2.17 2.28-13.87 13.86-20.27 37.3-6.41 23.45-6.58 28.17-10.33 55.17s-7.16 44.6-11.13 54.79c-3.4 8.7-9.31 17.99-11.86 21.18-2.54 3.19-21 23.74-48.61 26.05-33.83 2.82-48.76 1.16-62.47-3.73-9.06-3.23-25.49-13.66-30.9-28.28-2.1-5.7-4.37-15.97-4.61-23.43-.28-8.58 1.72-21.26 3.76-36.57 5.23-39.13 5.4-41.2 11.37-80.38.48-3.16-1.56-5.16-6.14-6.02v-6.22h90.15v6.22c-5.08 1.05-7.8 3.21-8.13 6.48-2.85 27.32-6.75 44.48-8.48 59.63-2.71 23.68-4.42 28.04-8.24 64.37-2.05 19.48 10.06 35.5 24.85 35.5 27.54 0 43.83-16.52 49.59-29.5 7.94-17.86 9.13-30.78 10.92-42.49 4.15-27.04 7.01-51.4 11.59-68.39 4.57-17 13.5-35.4 20.03-41.68 6.51-6.27 13.11-17 34.22-16.3z" fill="#000" fill-rule="evenodd"/>
</svg>
