<svg width="512" height="512" xmlns="http://www.w3.org/2000/svg">
  <path d="M167.09 368.29L226.94 488H107.23l59.86-119.71zm121.62 1.66V484.6h115.2v2.84H285.87v-117.5h2.83zm-121.62 4.4l-55.61 111.2h111.21l-55.6-111.2zm-.36-177.51a59.5 59.5 0 110 119 59.5 59.5 0 010-119zm236.71.28l1.06 1.05a1 1 0 010 1.42L289.05 315.03a1 1 0 01-1.41 0l-1.05-1.05a1 1 0 010-1.41l115.44-115.45a1 1 0 011.41 0zm-236.7 2.55a56.67 56.67 0 100 113.34 56.67 56.67 0 000-113.34zm0-175.67a59.5 59.5 0 110 119 59.5 59.5 0 010-119zm119.34 118.2V24.72H404.1v2.83H288.91v111.83h115.2v2.84H286.07zM166.73 26.84a56.67 56.67 0 100 113.34 56.67 56.67 0 000-113.34z" fill="#000" fill-rule="evenodd"/>
</svg>
