<svg width="512" height="512" xmlns="http://www.w3.org/2000/svg">
  <path d="M33.09 217.75a3 3 0 014.04 1.3l13.72 26.59a3 3 0 005.35-.05l13.02-26.4a3 3 0 015.38-.02l20 39.97a2 2 0 003.58-.01l19.6-39.95a3 3 0 015.37-.03l20.22 40.05a2 2 0 003.58-.01L166 221.04a4 4 0 017.18.05l10.95 22.67a4 4 0 007.15.1l12.08-23.12a4 4 0 017.13.07l18.08 36.5a3 3 0 005.38 0L251 222.77a5 5 0 018.95-.03l18.3 36.4a2 2 0 003.58-.02l18.55-38.05a4 4 0 017.18-.02l12.07 24.3a4 4 0 007.18-.03l11.74-24.17a4 4 0 017.2-.01l18.68 38.23a2 2 0 003.53.12l10.44-18.14c.74-1.55 1.6-3.04 2.56-4.46l.38-.66v.1a35.98 35.98 0 0161.57 4.42A35.97 35.97 0 01511 257a35.98 35.98 0 01-68.1 16.24 35.97 35.97 0 01-61.94 3.87l-7.6 13.41a8 8 0 01-14.07-.27l-14.51-28.1a3 3 0 00-5.32-.02l-12.7 24.22a4 4 0 01-7.08.01l-13.04-24.64a3 3 0 00-5.33.03l-14.28 27.96a8 8 0 01-14.19.1l-14.73-27.75a3 3 0 00-5.31.02l-14.41 27.66a8 8 0 01-14.2-.01l-14.55-28.05a3 3 0 00-5.31-.02l-13.05 24.52a4 4 0 01-7.12-.1l-11.9-24.16a3 3 0 00-5.35-.07l-14.7 28.07a8 8 0 01-14.15.03l-14.94-28.25a3 3 0 00-5.32.04l-14.35 27.93a8 8 0 01-14.2.06L74.6 261.77a3 3 0 00-5.34.04l-12.2 24.07a4 4 0 01-7.1.06l-12.93-24.38a3 3 0 00-5.3-.02l-15.2 28.04-.47.44a8.96 8.96 0 01-14.18-10.44l29.9-60.49a3 3 0 011.3-1.34zm441.93 22.06a17.18 17.18 0 100 34.37 17.18 17.18 0 000-34.37zm-64.23 0a17.18 17.18 0 100 34.37 17.18 17.18 0 000-34.37z" fill="#000" fill-rule="nonzero"/>
</svg>
