<svg width="512" height="512" xmlns="http://www.w3.org/2000/svg">
  <path d="M103.33 371.97c37.66 0 71.56-9.35 129.54-35.65 75.25-34.15 110.9-48.37 144.8-57.66 50.64-13.83 82.91-13.37 99.54 1.62 3.9 3.45 8 9.23 5.9 13.57-1.16 1.63-5.5 3.67-7.65 3.73-2.97.73-3.85-2.22-3.85-3.91 0-1.7-2.72-5.85-5.31-7.35-2.86-1.62-7.28-1.95-9.61-.78-2.73 1.43-5.65 4.8-6.37 7.28-1.3 4.93 1.76 13.5 6.63 18.5 8.11 8.31 20.45 9.94 32.27 4.35 11.75-5.52 18.44-17.46 16.42-29.02-1.23-7.21-4.67-13.05-11.68-20-6.95-6.82-12.73-10.52-22.08-14.03-20.71-7.79-48.05-7.14-86.75 2.02-6.75 1.62-12.4 2.79-12.6 2.6-.32-.33-7.79-45.2-7.85-46.89 0-.45 8.96-8.96 20-18.96 10.97-9.93 21.56-19.8 23.57-21.88 8.24-8.63 11.3-14.6 10.84-21.3-.26-3.44-.52-4.02-2.66-5.97-2.08-1.95-2.86-2.2-5.78-2.2-5.13 0-9.41 3.17-11.56 8.5-2.2 5.52-5.84 9.6-21.36 23.7-8.7 7.99-16.1 14.54-16.36 14.54-.26 0-.78-2.14-1.24-4.74-1.88-11.42-4.74-19.8-8.44-24.48-9.6-12.14-32-12.14-51.94.13-10.33 6.3-15.91 13.57-15.91 20.52 0 3.05.26 3.7 1.88 5.13 1.7 1.43 2.4 1.63 5.4 1.37 2.85-.26 4.28-.85 7.98-3.51 2.53-1.75 6.75-4.68 9.41-6.56 8.83-6.17 17.99-7.66 23.77-3.83 2.66 1.82 4.02 3.96 5.52 8.77 1.04 3.5 4.93 24.02 4.67 24.67-.13.26-8.83 8.31-19.35 17.99-23.76 21.68-36.94 32.72-39.08 32.72-1.24 0 .06-2.99 6.23-14.35 8.11-14.93 9.67-18.96 9.74-25.39.06-4.09-.2-5.26-1.3-6.81-4.61-6.24-12.73-6.7-22.66-1.24l-3.96 2.14-1.76-1.49c-4.74-4.09-11.42-2.2-15.58 4.42-1.2 1.82-5.8 10.6-10.46 19.7l-.45.88c-8.7 17.08-8.7 17.14-13.11 20.78-5.33 4.41-11.37 8.24-11.95 7.6-.26-.27 4.28-9.81 10.13-21.3 10.06-19.74 10.58-21.04 10.26-23.83-.13-1.63-.52-3.5-.78-4.16-.33-.84-.13-1.1.9-1.1 5.27 0 11.11-7.66 11.11-14.55 0-12.53-18.57-9.8-21.5 3.19-.64 2.98-.64 4.09 0 5.7 1.44 3.52 1.57 4.36.72 4.36-1.88 0-5.2 2.2-7.01 4.74-2.6 3.64-21.04 39.8-23.25 45.58-3.44 9.16-1.94 16.95 3.97 20.26 4.67 2.66 13.63 1.82 21.03-2.08 2.02-.97 2.21-.97 3.31 0 1.63 1.5 5.85 1.95 8.7.98 1.3-.4 3.32-1.95 4.62-3.45 1.23-1.42 6.81-11.49 12.33-22.27 8.57-16.68 10.52-19.93 12.86-21.88 3.25-2.66 10.78-7.6 11.62-7.6.98 0 .26 1.56-6.62 14.61-7.34 14.03-9.1 18.57-9.1 23.64.07 12.66 12.28 16.75 27.34 9.09 2.28-1.1 8.64-5.33 14.16-9.42 5.58-4.09 13.05-9.54 16.56-12.14 3.57-2.53 9.67-7.72 13.63-11.43 3.96-3.76 8.31-7.85 9.61-9.09 1.37-1.23 2.6-2.07 2.8-1.88.19.2 1.55 7.34 2.98 15.84 1.43 8.57 3.57 20.2 3.31 20.46-.26.26-3.37 1.36-6.95 2.53-22.79 7.47-62.85 24.09-115.57 48.05-47.2 21.43-69.93 29.48-96.49 34.09-47.08 8.18-92.2-3.5-103.63-26.82-.9-1.82-2.26-6.92-2.04-12.14a30.96 30.96 0 012.95-11.43c6.36-12.86 19.15-20.52 31.23-18.63 4.94.77 8.83 3.11 10.78 6.55 2.8 4.94 2.73 5.4-1.95 13.7-5.2 9.22-6.95 13.9-6.36 17.02.58 2.98 3.11 5.97 6.43 7.46 5.45 2.54 10.19 1.1 16.03-4.8 3.58-3.64 4.61-5.33 16.89-27.08a49110.3 49110.3 0 0147.4-83.89c4.54-8.12 8.63-15.52 9.09-16.43 1.17-2.6 1.81-1.88 1.81 2.15 0 5.97-4.48 18.24-13.96 38.44-5.51 11.75-7.2 16.94-6.55 20.32.84 4.54 6.23 6.82 10.58 4.54 3.44-1.75 7.27-6.75 14.93-19.41 9.03-15 19.68-31.36 25.52-39.35 4.68-6.36 18.12-20.65 19.48-20.65.33 0-.78 2.73-2.53 5.98-3.5 6.68-35.26 69.02-41.5 81.36a112.3 112.3 0 00-4.54 10.06c-2.66 10.06 8.83 14.8 16.5 6.82 1.49-1.56 4.35-6.1 6.62-10.46 2.14-4.22 12.01-23.5 21.88-42.79 35.9-70.06 35.26-68.63 32.14-74.28-1.95-3.37-4.6-4.6-9.93-4.6-13.5 0-32.53 12.26-46.82 30.12l-4.6 5.78-1.05-3.5c-1.62-5.6-3.7-9.03-7.98-13.32-6.76-6.69-15.59-10-27.02-10-12.14 0-24.02 4.03-36.3 12.15-7.26 4.87-18.24 15.84-23.04 23.05-10.33 15.64-12.99 33.3-6.89 45.38 4.48 8.64 13.38 12.47 20.78 8.83 1.17-.65 2.21-1.04 2.34-.97.07.13-2.66 5.06-6.04 11.04l-6.17 10.84-4.09-3.25c-7.6-5.9-15.06-8.44-25.65-8.5-11.23-.07-20.7 3.18-30.45 10.52a57.38 57.38 0 00-20.32 29.67C6.33 301.58 6 304.37 6 310.48c.39 7.29 1.38 13.02 2.99 17.2 4.87 12.34 15.13 22.73 30.38 30.72 17.73 9.28 37.92 13.57 63.96 13.57zm10.85-149.28c-8.7 15.39-9.1 16.04-9.48 13.9-.26-1.56-1.7-3.51-4.61-6.5-3-3.05-4.29-4.87-4.61-6.62-2.86-15.45 16.94-38.24 37.4-42.92 1.94-.45 4.22-.84 5.06-.84 1.43-.07 1.95.84.84 1.55-.9.52-13.83 22.34-24.6 41.43z" fill="#000" fill-rule="nonzero"/>
</svg>
