<svg width="512" height="512" xmlns="http://www.w3.org/2000/svg">
  <path d="M336.11 123.32c-6.18 47.72 41.85 265.36 151.89 265.36H357.8c16.76-5.07 37.93-13.05 37.93-22.58 0-9.54-57.52-72.13-65.8-221.32-31.14 45.18-36.2 52.93-66.64 100.14 16.35 25.05 33.6 55.77 33.6 76.47 0 20.71-15.66 41.67-40.89 41.67h-.75c-24.8-.42-40.14-21.17-40.14-41.67 0-20.7 17.25-51.42 33.6-76.47-30.45-47.21-35.5-54.96-66.64-100.14-8.28 149.2-65.8 211.78-65.8 221.32 0 9.44 20.74 17.35 37.42 22.42l.5.16H24c110.04 0 158.07-217.64 151.89-265.36 30.02 36.74 56.31 72.45 78.86 107.12l1.25 1.93c22.82-35.28 49.53-71.62 80.11-109.05zm-80.1 134.55l-.2.34c-6.35 11.66-25.9 44.83-24.88 63.71 1.02 18.88 16.73 24.91 24.83 25.03h.24c8.03 0 24.05-5.96 25.08-25.03 1.04-19.07-18.93-52.72-25.08-64.05z" fill="#000" fill-rule="evenodd"/>
</svg>
