<svg width="512" height="512" xmlns="http://www.w3.org/2000/svg">
  <path d="M256 40.46l.7 2.93c23 96.57 49.87 179.56 80.63 248.97C383.93 397.53 419.4 471.54 488 471.54H355.04l.52-.24c17.32-7.94 36.55-16.5 36.55-26.03 0-7.45-31.5-34.84-84.46-181.52v-.01a5068.36 5068.36 0 00-42.5 65.07c16.7 25.58 33.61 54.78 33.61 75.93 0 21.14-17 42.35-42.76 42.35v-20.14c7.4 0 22.13-5.5 23.08-23.04.96-17.55-17.43-48.53-23.08-58.95v-33.68l45.8-63.95c-13.94-39.77-29.26-87.57-45.8-145.09-16.54 57.52-31.86 105.32-45.8 145.1l45.8 63.94v33.68l-.17.32c-5.79 10.61-23.5 40.64-22.94 58.1l.03.53c.94 17.38 15.4 22.93 22.86 23.04h.22v20.14c-25.77 0-42.76-21.2-42.76-42.35 0-21.15 16.91-50.35 33.6-75.93a5068.36 5068.36 0 00-42.49-65.07v.01c-52.97 146.68-84.46 174.07-84.46 181.52 0 9.53 19.23 18.09 36.55 26.03l.52.24H24c68.6 0 104.08-74 150.67-179.18 31.07-70.11 58.18-154.08 81.33-251.9zm0 386.49v-81.99 81.99z" fill="#000" fill-rule="evenodd"/>
</svg>
