<svg width="512" height="512" xmlns="http://www.w3.org/2000/svg">
  <path d="M232.83 85.72c16.27 4.1 16.5 4.67 31.1 13.36 14.64 9.26 19.75 15.3 27.74 27.47 4.12 6.77 7.3 13.38 9.51 21.67.85 3.21 1.67 8.4 2.44 15.59.17 8.8.03 15.08-.44 18.85-.94 7.58-2.48 11.9-4.55 18.19-2.06 6.28-4.35 12.32-8.92 19.7-1.78 2.87-5.57 8.13-11.4 15.8-8.16 7.89-14.29 13.45-18.39 16.67-6.15 4.85-15.25 10.35-22.74 14.15a209.03 209.03 0 01-19.73 8.63c-3.84 1.5-9.7 3.55-17.58 6.15a152.63 152.63 0 01-14.62 3.09c1.53 5.07 2.65 8.19 3.43 10.88 2.06 7.1 2.82 10.33 5.2 18.32 1.38 4.61 6.78 22.74 8.42 26.5 2.94 8.16 5.24 14.2 6.88 18.1 2.58 6.16 5.12 12.37 8.27 17.86 1.64 2.86 3.14 5.9 9.28 14.6 2.49 3.52 6.09 7.54 10.81 12.08 4.68 3.57 8.6 5.72 11.74 6.45 1.84.43 4.34 1.01 7.54.94 1.53-.03 4.2-.46 7.98-1.27 2-.52 9.07-4.54 10.17-5.57 3.07-2.4 8.2-7.03 11.49-12.33 6.61-11.02 11.2-19.35 13.77-24.99a653.42 653.42 0 0012.9-31.64c2.13-5.86 3.43-9.3 7.07-19.1 3.64-9.82 11.34-33.3 20.53-57.5 2.55-6.7 6.98-17.7 13.3-33A293.93 293.93 0 01371.05 194a142.53 142.53 0 0123.78-29.48c6.35-6.64 14.81-11.81 24.26-16.3 5.79-2.3 13.27-5.55 32.25-6.02.25 1.95 2.77 2.93 7.56 2.93 3.8 0 7.43.2 17.4-.73 6.64-.62 16.55-1.3 29.7-2.04-14.45 4.15-24.48 7.71-30.07 10.7-5.59 2.98-11.8 7.08-18.65 12.3-7.2 6.16-12.71 11.78-16.52 16.86-5.72 7.6-11.62 15.23-17.64 26.08-6.01 10.84-13.18 26-18.26 37.55-3 8.35-12.08 31.67-27.22 69.97-4.27 9.31-8.32 18.32-12.72 27.34-3.66 7.49-8.66 15.84-12.46 23.05-7.5 12.16-13.17 20.53-17 25.1-5.76 6.84-14.97 15.38-20.36 20.11-8.45 7.41-19.32 13.13-32.61 17.15a115.49 115.49 0 01-31.1 2.66c-8.64-.16-19.65-2.53-33.03-7.1-18.49-6.72-35.76-24.72-46.3-37.78-1.97-2.4-7.4-9.6-14.75-21.82l-.57-.97a365.53 365.53 0 01-15.9-31.09l-12.99-31.85c-9.04.82-19.27.65-27.13-3.6-4.54-3.34-7.69-5.35-13.21-15.1-3.32-8.96-1.91-15.05 1.29-22.33 3.2-7.27 9.76-12.62 15.68-17.43 3.42-2.02 7.5-4.92 12.26-6.83 5.24-2.1 9.72-2.82 16.19-3.75 3.73.11 7-.33 10.56.33 2.58.47 6.85 1.7 9.42 2.39 10.62 4.06 23.5 16.82 25.21 26.76 9.6-3.8 23.59-10.08 38.86-24.48 21.44-19.54 31.02-45.3 32.46-76.1.02-4.78-.1-10.89-.73-15.93-.85-6.81-2.38-12.16-3.34-14.34-1.67-3.78-3.8-8.51-5.67-11.2-3.02-4.36-7.27-7.96-10.48-10.37-2.86-2.15-4.8-2.98-10.1-5.45-9.42-2.99-21.3-3.48-29.87-2.18-7.48 1.14-11.89 3.81-16.28 6.03a50.92 50.92 0 00-12.68 9.12 52.55 52.55 0 00-7.13 7.92c-1.86 2.63-5.28 8.93-7.51 12.41-1.73 4.1-3.28 7.16-4.7 11.3-1.4 4.14-3.1 13.83-4 17.15-2.49 9.27-4.6 12.66-9.62 27.1a139.33 139.33 0 01-29.42 47c-9.11 9.3-9.88 9.3-20.15 15.2-5.2 3.17-13.36 4.08-19.56 3.99-3.1-2.03-8.05-1.87-10.99-2.2-2.94-.34-10.95-.3-15.42-.15-11.45.64-17.67 5.13-25.79 5.2 1.12-2.85 2.19-4.66 3.21-5.43 7.14-4.54 17.17-9.47 20.71-11.6 12.05-8.88 16.93-13.44 27.9-27.06 3.03-3.75 7.38-11.78 12.15-21.8 2.99-6.28 6.6-13.13 8.89-19.04 2.96-7.7 4.97-14.67 10.27-25.76 6.08-12.73 11.62-22.18 16.62-28.35 2.68-3.69 6.42-8.56 12.07-14.07 4.26-4.16 8.52-8.13 14.26-12 6.76-4.25 16.1-8.2 28.04-11.87a180.24 180.24 0 0112.76-2.28c9.3-1.12 17.99-1.14 21.73-1.19 19.31-.23 30.61 3.18 38.22 5.1zM100.36 261.45c-.01 1.85.05 3.8.15 5.16a9.27 9.27 0 001.02 3.89c2.51 4.18 4.6 5.9 8.27 7.07 1.74.67 9.12 1.16 10.55.7.56-1.05-5.07-10.6-7.27-12.41a15.22 15.22 0 00-5.71-3.6c-2.64-.83-4.67-.84-7-.8z" fill="#000" fill-rule="evenodd"/>
</svg>
