<svg width="512" height="512" fill="none" xmlns="http://www.w3.org/2000/svg">
  <path fill-rule="evenodd" clip-rule="evenodd" d="M387.2 27.23c-86.45-17.97-130.8 44.9-130.8 44.9v42.67s35.91-41.91 61.2-53c25.29-11.07 59.5-10.64 81.8.8 22.28 11.42 38.86 26.2 50.67 53.9 11.82 27.7 8.12 74.38-19.96 102.77a99713.14 99713.14 0 01-164.94 165.34l21.11 21.1c36.17-35.88 99.4-98.77 157.05-156.74 87.08-87.58 30.32-203.78-56.13-221.74zm-261.6 0C39.15 45.19-17.6 161.39 69.47 248.97A38232.26 38232.26 0 00256.4 435.34V393.4S110.78 247.67 82.7 219.27C54.6 190.88 50.9 144.2 62.72 116.5c11.82-27.7 28.4-42.48 50.68-53.9 22.28-11.44 56.5-11.87 81.8-.8 25.28 11.09 61.19 53 61.19 53V72.14S212.05 9.26 125.6 27.23zm96.19 153.01c14.27-17.28 33.9-15.71 34.05-15.7.14-.01 19.78-1.58 34.05 15.7 14.05 17 14.34 30.28 14.63 43.92l.02.82c.25 11.57-3.73 24.76-7.74 38.03v.01c-.81 2.7-1.63 5.4-2.41 8.1-10.98 37.82-25.9 88.1-25.9 88.1l-12.65 13-12.65-13s-14.92-50.28-25.9-88.1c-.78-2.7-1.6-5.4-2.41-8.1-4.01-13.28-8-26.47-7.74-38.04l.02-.82c.3-13.64.58-26.92 14.63-43.92zm50.7 19.82c-7.01-9.6-16.51-9.42-16.65-9.41V308.7c.17-.58 14.35-48.3 19.3-65.32 4.97-17.12 4.4-33.64-2.65-43.31zm-16.65-9.41V308.7s-14.34-48.2-19.31-65.32c-4.98-17.12-4.42-33.64 2.65-43.31 7.06-9.68 16.66-9.42 16.66-9.42zM226.62 423l21.25 21.23s-1.43 4.65 0 7.66a10.1 10.1 0 008.97 5.7c4.17 0 8.75-4.1 8.75-9.16 0-5.06-9.19-13.1-9.19-13.1V393.4a3811.92 3811.92 0 0021.3 20.96c6.2 5.94 16.01 15.32 17.15 27.13 1.23 12.81.79 29.26-19.77 41.12-20.56 11.87-40.05 1.9-48.45-8.43-8.41-10.33-9.31-15.82-9.31-28.11 0-12.3 9.3-23.06 9.3-23.06z" fill="#000"/>
</svg>
