<svg width="512" height="512" xmlns="http://www.w3.org/2000/svg">
  <path d="M297.2 194c10.59 19.14-32.17 45.81-32.17 76.55 0 30.74 36.65 37.1 32.16 87.65-2.99 33.7-28.88 76.97-77.66 129.8 1.71-4.58 3.37-9.05 4.98-13.43 13.7-53.65 17.05-95.2 10.05-124.63-10.66-44.78-46.7-83.14-50.46-118.88-2.13-20.3 13.94-23.47 25.55-20.4 8.84 2.33 13.55 9.26 14.74 9.26 1.53 0 2.82-6.18 10.17-10.06 5.94-3.14 17.26-4.88 24.64.8 16.1 12.37-14.2 37.25-11.68 65.95.07.82.15 1.62.24 2.42-.23-3.82-.07-7.72.61-11.78 4.69-27.8 25.72-48.9 28.26-61.48 1.7-8.39-4.77-12.99-19.38-13.81 19.57-11.4 32.88-10.7 39.94 2.05zm30.9-170C274 79 243.62 117.34 237 139.03c-9.93 32.54 9.14 35.69 16.13 30.48 4.66-3.47 8.11-10.22 10.35-20.26 4.01 20.94.56 34.68-10.35 41.2-16.36 9.79-51.63 0-42.99-45.88 5.77-30.6 45.08-70.78 117.95-120.57z" fill="#000" fill-rule="evenodd"/>
</svg>
