<svg width="512" height="512" xmlns="http://www.w3.org/2000/svg">
  <path d="M431.91 220.4c3.05-3.48 15.77 7.28 10.99 13.7-7.72 10.33-19.9-7.4-23.5-12.61a27.82 27.82 0 00-5.65-6.2 26.72 26.72 0 00-14.46-6.53c-12.3-1.3-34.7 10.98-35.13 24.69-.33 8.7 8.37 14.14 12.62 20.77 7.06 10.98 11.2 25.45 12.4 38.39a125.2 125.2 0 01-15.56 72.86c-11.96 20.67-42.41 48.5-64.7 23.17a129.25 129.25 0 0025.88-34.37 119.82 119.82 0 0012.61-36.76 65.58 65.58 0 00-2.28-31.75 31.15 31.15 0 00-18.05-19.14 47.24 47.24 0 00-47.96 6.3 58.7 58.7 0 00-16.2 20.56 77.45 77.45 0 00-7.4 29.25c-.55 10.99.32 22.08 2.72 32.85a105.18 105.18 0 0015.33 35.89 44.24 44.24 0 01-12.18 8.37 19.36 19.36 0 01-12.83 1.2 35.46 35.46 0 01-20.45-13.16l-.76-.98a47.15 47.15 0 01-7.18-17.62c-1.96-12.61-1.41-30.02 2.07-49.05 2.83-13.7 6.52-27.3 10.98-40.56.65-1.74 1.3-3.37 1.96-5.11 15.12-37.52 33.6-79.07 43.6-101.58 17.41.87 34.92.54 52.32-1.2C432.68 160.37 420.06 44 420.06 44c-49.05 62.53-151.38 51.77-220.55 68.4-62.53 15.23-138.44 72-152.8 141.93-16.64 81.02 34.15 85.91 34.15 85.91l49.05-40.67c-62.54-7.4-62.54-82.54-15.66-114.73 21.42-14.69 53.29-16.86 88.63-15.77-9.35 31.86-33.71 117.23-36.65 161.28-3.59 53.07 8.6 90.7 64.5 100.16 4.34.43 8.7.65 13.04.54h.11c14.03-1.2 28.5-8.59 43.5-22.18 7.83 9.78 16.1 16.2 24.9 19.14 40.46 13.8 73.52-10.12 93.97-42.53a219.4 219.4 0 0018.05-36.54c1.2-3.04 2.4-6.09 3.37-9.13 7.18-20.66 12.5-46 9.14-71.13 2.39-.32 4.67-.97 6.85-1.95 14.35-5.77 23.7-17.19 24.9-32.74 1.53-19.57-20.66-31.54-36.65-13.6zM300.76 369.82c0-.21-.11-.54-.33-.65a50.64 50.64 0 01-3.91-12.5c-2.07-10.77-4.57-29.91 1.84-39.48 5.12-7.5 14.9-8.6 19.58 0 4.02 7.28-1.85 19.36-4.57 26.42a232.2 232.2 0 01-12.61 26.21z" fill="#000" fill-rule="nonzero"/>
</svg>
