<svg width="512" height="512" xmlns="http://www.w3.org/2000/svg">
  <path d="M49.14 137.98a4.4 4.4 0 011.88 5.93c-26.22 50.6-22.84 96.2 10.11 137.64l.88 1.09 106.02 107.15a4.4 4.4 0 01.16 6.02l-.2.2a4.4 4.4 0 01-6.01.17l-.21-.2-56.85-57.45C41.14 422.02 20.94 468.95 40.6 477.86c22.1 10.01 88.43-30.4 195.29-121.17a4.4 4.4 0 115.7 6.7C130.97 457.35 64 498.15 36.94 485.88c-28.9-13.1-7.07-63.82 61.73-153.66l-43.24-43.7-.13-.16c-36.15-44.55-40.17-94.33-12.1-148.49a4.4 4.4 0 015.93-1.88zm262.22 284a4.4 4.4 0 016 6.43l-57.92 57.64-.23.22a5.87 5.87 0 01-8.06-.24l-56.06-57.67-.2-.21a4.4 4.4 0 016.52-5.92l53.93 55.49 55.8-55.55zM48.43 24.04c19.94 1 54.42 19.16 104.34 54.53.46.32.84.72 1.13 1.16 35.54.72 69.93 18.12 102.35 53.41 2.65-12.68.9-26.11-5.1-37.14-7.28-13.34-20.19-22.35-37.89-25.15a3.46 3.46 0 01-.23-.03l.2.03a4.47 4.47 0 01-2.53-1.34 4.37 4.37 0 01.11-6.12 4.38 4.38 0 012.45-1.24l-.06.01c35.4-5.86 63.62 5.22 80.1 28.45a71.97 71.97 0 014.77 7.74 112.2 112.2 0 0160.03-18.2c.31-.6.77-1.13 1.37-1.55 50.32-35.38 85.11-53.55 105.25-54.55 11.52-.57 19.16 4.52 21.5 14.73 2.07 9.02-.04 22-6.12 39.22-16.66 47.23-123.35 179.98-204.05 252.68a4.4 4.4 0 11-5.9-6.54c79.71-71.8 185.59-203.55 201.65-249.07 5.57-15.78 7.45-27.32 5.84-34.33-1.33-5.81-5.02-8.27-12.49-7.9-16.96.85-48.35 16.84-93.41 47.94 19.84 2.04 40.47 9.08 61.6 21.6a4.4 4.4 0 01-4.48 7.57c-26.5-15.69-51.83-22.22-75.59-20.81a103.49 103.49 0 00-51.48 17.3c6.9 17.79 6.99 37.98-.27 54.87-9.38 21.84-32.56 38.74-58.13 42.63-28.41 4.31-55.04-7.67-71.99-35.65v-.01a4.41 4.41 0 01-.08-4.4l-.1.17a4.47 4.47 0 01.33-.55l.04-.05.07-.1.06-.07.09-.11c0-.02.02-.03.03-.05a4.07 4.07 0 01.5-.48l.04-.04c.15-.12.3-.23.47-.33l.04-.02.02-.02.1-.06-.12.08a4.47 4.47 0 011.75-.61h.03l.13-.02h.15c.5-.03 1.01.03 1.52.18l.05.02.06.02.35.14h.02a4 4 0 01.18.09c20.56 10.25 38.5 11.67 52.66 5.55 10.62-4.6 18.8-13.42 23.45-24.66-53.27-60.45-110.72-69.2-170.96-33.02a4.4 4.4 0 11-4.53-7.55C98.7 89.8 119.48 82.36 139.92 80.3 95.57 49.5 64.67 33.67 47.99 32.83c-7.35-.36-10.96 2.07-12.25 7.89-1.57 7.01.34 18.56 5.9 34.35 15.18 43 80.06 127.6 159.36 208.8 96.56 98.86 201.3 181.2 246.51 192.23 13.55 3.3 22.56 2.95 26.96-.41 4.02-3.07 5-9.67 2.15-20.5-6.14-23.41-29.35-62.34-69.54-116.38l-56.56 57.17-.21.2a4.4 4.4 0 01-6.02-.16l-.2-.21a4.4 4.4 0 01.17-6.02l59.72-60.36c.25-.33.54-.63.89-.9l45.4-45.9.88-1.08c32.95-41.44 36.34-87.04 10.11-137.64a4.4 4.4 0 017.82-4.05c28.06 54.16 24.04 103.94-12.1 148.49l-.14.16-43.5 43.97c41.33 55.47 65.23 95.48 71.8 120.47 7.43 28.31-7.33 39.6-39.71 31.7-47.41-11.57-152.99-94.57-250.72-194.64C114.55 207.94 49.07 122.56 33.35 78l-.65-1.86c-5.58-16.3-7.49-28.65-5.55-37.34 2.27-10.22 9.84-15.33 21.28-14.76zm188.35 45.54l.46.25a55.53 55.53 0 0121.63 21.96c7.77 14.24 9.43 31.73 4.87 47.7-.26.94-.55 1.87-.86 2.78 0 1.01-.34 2.01-1.01 2.82-5.39 13.86-15.37 24.9-28.6 30.6-12.96 5.62-28.28 5.89-45.13.43 14.53 15.88 33.62 22.2 53.93 19.11 22.65-3.43 43.22-18.44 51.37-37.4 8.3-19.33 5.54-43.98-7.33-62.13-10.95-15.44-27.84-24.79-49.33-26.12z" fill="#000" fill-rule="nonzero"/>
</svg>
